<?xml version="1.0" encoding="utf-8"?>
<!-- Generator: Adobe Illustrator 25.2.0, SVG Export Plug-In . SVG Version: 6.00 Build 0)  -->
<svg version="1.1" id="Layer_1" xmlns="http://www.w3.org/2000/svg" xmlns:xlink="http://www.w3.org/1999/xlink" x="0px" y="0px"
	 viewBox="0 0 120 50" style="enable-background:new 0 0 120 50;" xml:space="preserve">
<style type="text/css">
	.st0{display:none;}
	.st1{display:inline;}
	.st2{fill:#56BE91;}
	.st3{display:inline;fill:#56BE91;}
	.st4{fill:#FFFFFF;}
	.st5{fill:#FCE588;}
	.st6{fill:#F9FBFD;}
</style>
<g class="st0">
	<g class="st1">
		<g>
			<path class="st2" d="M54.8,19.2c-0.3-0.3-0.7-0.5-1.2-0.5c-0.5,0-0.9,0.2-1.2,0.5c-0.3,0.3-0.5,0.7-0.5,1.2v0
				c-0.2-0.2-0.3-0.3-0.5-0.5c-0.5-0.4-1.1-0.7-1.7-0.9c-0.7-0.2-1.4-0.4-2.2-0.4c-1.2,0-2.4,0.3-3.4,1c-1,0.7-1.8,1.6-2.4,2.7
				c-0.6,1.2-0.9,2.5-0.9,4c0,1.5,0.3,2.8,0.9,4c0.6,1.2,1.4,2.1,2.5,2.7c1,0.7,2.2,1,3.5,1c0.7,0,1.4-0.1,2-0.3
				c0.6-0.2,1.1-0.5,1.6-0.8c0.3-0.2,0.6-0.5,0.8-0.7c0,0.5,0.2,0.9,0.5,1.2c0.3,0.3,0.7,0.5,1.2,0.5c0.5,0,0.9-0.2,1.2-0.5
				c0.3-0.3,0.5-0.7,0.5-1.2V20.4C55.3,19.9,55.1,19.5,54.8,19.2z M51.6,28.8c-0.3,0.7-0.8,1.3-1.4,1.7c-0.6,0.4-1.3,0.6-2.1,0.6
				c-0.8,0-1.5-0.2-2.1-0.6c-0.6-0.4-1.1-1-1.4-1.7c-0.3-0.7-0.5-1.5-0.5-2.4c0-0.9,0.2-1.7,0.5-2.4c0.3-0.7,0.8-1.3,1.4-1.7
				c0.6-0.4,1.3-0.6,2.1-0.6c0.8,0,1.5,0.2,2.1,0.6c0.6,0.4,1.1,1,1.4,1.7c0.3,0.7,0.5,1.5,0.5,2.4C52.1,27.3,51.9,28.1,51.6,28.8z"
				/>
		</g>
		<g>
			<path class="st2" d="M80.8,25.1v7.1c0,0.5-0.2,0.9-0.5,1.2c-0.3,0.3-0.7,0.5-1.2,0.5c-0.5,0-0.9-0.2-1.2-0.5
				c-0.3-0.3-0.5-0.7-0.5-1.2v-7.1c0-0.6-0.1-1.2-0.2-1.6c-0.1-0.5-0.4-0.9-0.8-1.2c-0.4-0.3-0.9-0.4-1.7-0.4
				c-0.7,0-1.3,0.1-1.8,0.4c-0.5,0.3-0.9,0.7-1.1,1.2c-0.2,0.5-0.4,1-0.4,1.6v7.1c0,0.5-0.2,0.9-0.5,1.2c-0.3,0.3-0.7,0.5-1.2,0.5
				c-0.5,0-0.9-0.2-1.2-0.5c-0.3-0.3-0.5-0.7-0.5-1.2v-7.1c0-0.6-0.1-1.2-0.2-1.6c-0.1-0.5-0.4-0.9-0.8-1.2
				c-0.4-0.3-0.9-0.4-1.7-0.4c-0.7,0-1.3,0.1-1.8,0.4c-0.5,0.3-0.9,0.7-1.1,1.2c-0.2,0.5-0.4,1-0.4,1.6v7.1c0,0.5-0.2,0.9-0.5,1.2
				c-0.3,0.3-0.7,0.5-1.2,0.5c-0.5,0-0.9-0.2-1.2-0.5c-0.3-0.3-0.5-0.7-0.5-1.2V20.7c0-0.5,0.2-0.9,0.5-1.2c0.3-0.3,0.7-0.5,1.2-0.5
				c0.5,0,0.9,0.2,1.2,0.5c0.3,0.3,0.5,0.7,0.5,1.2v0.5c0.1-0.1,0.2-0.2,0.3-0.4c0.3-0.4,0.7-0.7,1.1-1c0.4-0.3,0.9-0.6,1.4-0.8
				c0.5-0.2,1.1-0.3,1.7-0.3c1.5,0,2.6,0.4,3.3,1.1c0.5,0.5,0.9,1.2,1.2,2c0.2-0.4,0.5-0.8,1-1.3c0.5-0.5,1-0.9,1.7-1.2
				c0.7-0.3,1.4-0.5,2.2-0.5c1.3,0,2.3,0.3,3,0.9c0.7,0.6,1.2,1.3,1.4,2.3C80.7,22.8,80.8,23.9,80.8,25.1z"/>
		</g>
		<g>
			<path class="st2" d="M97.6,19.2c-0.3-0.3-0.7-0.5-1.2-0.5c-0.5,0-0.9,0.2-1.2,0.5c-0.3,0.3-0.5,0.7-0.5,1.2v0
				c-0.2-0.2-0.3-0.3-0.5-0.5c-0.5-0.4-1.1-0.7-1.7-0.9c-0.7-0.2-1.4-0.4-2.2-0.4c-1.2,0-2.4,0.3-3.4,1c-1,0.7-1.8,1.6-2.4,2.7
				c-0.6,1.2-0.9,2.5-0.9,4c0,1.5,0.3,2.8,0.9,4c0.6,1.2,1.4,2.1,2.5,2.7c1,0.7,2.2,1,3.5,1c0.7,0,1.4-0.1,2-0.3
				c0.6-0.2,1.1-0.5,1.6-0.8c0.3-0.2,0.6-0.5,0.8-0.7c0,0.5,0.2,0.9,0.5,1.2c0.3,0.3,0.7,0.5,1.2,0.5c0.5,0,0.9-0.2,1.2-0.5
				c0.3-0.3,0.5-0.7,0.5-1.2V20.4C98.1,19.9,97.9,19.5,97.6,19.2z M94.4,28.8C94,29.5,93.6,30,93,30.5c-0.6,0.4-1.3,0.6-2.1,0.6
				c-0.8,0-1.5-0.2-2.1-0.6c-0.6-0.4-1.1-1-1.4-1.7c-0.3-0.7-0.5-1.5-0.5-2.4c0-0.9,0.2-1.7,0.5-2.4c0.3-0.7,0.8-1.3,1.4-1.7
				c0.6-0.4,1.3-0.6,2.1-0.6c0.8,0,1.5,0.2,2.1,0.6c0.6,0.4,1.1,1,1.4,1.7c0.3,0.7,0.5,1.5,0.5,2.4C94.9,27.3,94.7,28.1,94.4,28.8z"
				/>
		</g>
		<g>
			<path class="st2" d="M105.3,32.1c0,0.5-0.2,0.9-0.5,1.2c-0.3,0.3-0.7,0.5-1.2,0.5c-0.5,0-0.8-0.2-1.2-0.5
				c-0.3-0.3-0.5-0.7-0.5-1.2V15c0-0.5,0.2-0.9,0.5-1.2c0.3-0.3,0.7-0.5,1.2-0.5c0.5,0,0.9,0.2,1.2,0.5c0.3,0.3,0.5,0.7,0.5,1.2
				V32.1z"/>
		</g>
	</g>
	<g class="st1">
		<g class="st0">
			<path class="st3" d="M35.5,26.3c0,3.3-1.2,6.2-3.3,8.5h0c0,0,0,0,0,0c0,0,0,0,0,0c0,0,0,0,0,0c-0.1,0.1-0.2,0.2-0.2,0.3
				c-0.1,0.1-0.1,0.1-0.2,0.2c-0.1,0.1-0.1,0.1-0.2,0.2c0,0-0.1,0.1-0.1,0.1c0,0,0,0,0,0c-0.1,0.1-0.1,0.1-0.2,0.2c0,0,0,0,0,0
				c-0.1,0.1-0.1,0.1-0.2,0.2c0,0,0,0-0.1,0.1c-0.1,0-0.1,0.1-0.2,0.1c0,0-0.1,0.1-0.1,0.1c0,0,0,0-0.1,0.1
				c-0.1,0.1-0.1,0.1-0.2,0.2c0,0,0,0,0,0L27,37.2c-1.5,0.4-3.1,0.1-4.5-0.6l-3.4-1.9c-0.7-0.4-1.2-1-1.5-1.7l-0.1-0.2l-0.5-1.1
				l-0.9-2.3l-0.2-0.6c-0.1-0.2-0.1-0.3-0.2-0.5c0,0,0-0.1,0-0.1c-0.2-0.1-0.4-0.3-0.6-0.5c-1.2-1.1-1.9-2.8-1.9-4.6
				c0-3.4,2.4-6.4,5.6-6.8c0.8-0.1,1.5-0.4,2.1-0.8c0.4-0.3,0.9-1,1.2-1.7c0.2,0,0.5,0,0.7,0c0.3,0,0.5,0,0.8,0
				c0.3,0.7,0.7,1.4,1.2,1.7c0.6,0.4,1.3,0.7,2.1,0.8c3.2,0.4,5.6,3.4,5.6,6.8c0,0.1,0,0.3,0,0.4l0.7,0c0.1,0,0.2,0,0.3,0.1l1.8,1.2
				c0,0.1,0,0.1,0,0.2c0,0.1,0,0.1,0,0.2c0,0.1,0,0.1,0,0.2c0,0,0,0.1,0,0.1c0,0.1,0,0.2,0,0.2c0,0.1,0,0.2,0,0.3c0,0.1,0,0.2,0,0.2
				v0C35.5,26.2,35.5,26.2,35.5,26.3z"/>
		</g>
		<g>
			<g>
				<path class="st2" d="M30.6,36.3c-2.1,1.6-4.8,2.6-7.7,2.6c-7,0-12.6-5.6-12.6-12.6c0-6.7,5.3-12.2,11.9-12.6
					c-0.3,0.7-0.7,1.4-1.2,1.7c-0.6,0.4-1.3,0.7-2.1,0.8c-3.2,0.4-5.6,3.4-5.6,6.8c0,1.8,0.7,3.4,1.9,4.6c0.2,0.2,0.4,0.3,0.6,0.5
					c0,0,0,0.1,0,0.1c0,0.2,0.1,0.4,0.2,0.5l0.2,0.6l0.9,2.3l0.5,1.1l0.1,0.2c0.3,0.7,0.8,1.4,1.5,1.7l3.4,1.9
					c1.4,0.7,2.9,1,4.5,0.6L30.6,36.3z"/>
			</g>
			<g>
				<path class="st2" d="M35.4,24.7l-1.8-1.2c-0.1-0.1-0.2-0.1-0.3-0.1l-0.7,0c0-0.1,0-0.3,0-0.4c0-3.4-2.4-6.4-5.6-6.8
					c-0.8-0.1-1.5-0.4-2.1-0.8c-0.4-0.3-0.9-1-1.2-1.7C29.8,14.1,34.7,18.7,35.4,24.7z"/>
			</g>
			<g>
				<g>
					<path class="st2" d="M32.6,23c0,0.1,0,0.3,0,0.4l-0.8,0c-0.1-0.2-0.2-0.4-0.3-0.6c-0.1-2.8-2.1-5.1-4.7-5.4
						c-1-0.1-1.9-0.5-2.6-1c-0.5-0.3-0.9-0.9-1.3-1.5c-0.4,0.7-0.8,1.2-1.3,1.5c-0.8,0.5-1.6,0.9-2.6,1c-2.7,0.4-4.7,2.8-4.7,5.7
						c0,1.4,0.5,2.6,1.3,3.4l0,1c0,0.2,0,0.4,0.1,0.6c-0.2-0.1-0.4-0.3-0.6-0.5c-1.2-1.1-1.9-2.8-1.9-4.6c0-3.4,2.4-6.4,5.6-6.8
						c0.8-0.1,1.5-0.4,2.1-0.8c0.4-0.3,0.9-1,1.2-1.7c0.1-0.3,0.2-0.6,0.2-0.8c-1-0.3-1.7-1.1-1.7-2.2c0-1.3,1-2.3,2.3-2.3
						c0.3,0,0.6,0.3,0.6,0.6c0,0.3-0.3,0.6-0.6,0.6c-0.6,0-1.1,0.5-1.1,1.1s0.5,1.1,1.1,1.1c0.6,0,1.1-0.5,1.1-1.1c0,0,0,0,0,0
						c0-0.3,0.3-0.6,0.6-0.6c0.3,0,0.6,0.3,0.6,0.6c0,1.1-0.7,2-1.7,2.2c0,0.3,0.1,0.6,0.2,0.8c0.3,0.7,0.7,1.4,1.2,1.7
						c0.6,0.4,1.3,0.7,2.1,0.8C30.2,16.7,32.6,19.6,32.6,23z"/>
				</g>
			</g>
		</g>
		<g>
			<path class="st2" d="M35.5,25.9c0-0.1,0-0.2,0-0.3c0-0.1,0-0.2,0-0.2c0,0,0-0.1,0-0.1c0-0.1,0-0.1,0-0.2c0-0.1,0-0.1,0-0.2
				c0-0.1,0-0.1,0-0.2l-1.8-1.2c-0.1-0.1-0.2-0.1-0.3-0.1l-0.7,0l-0.8,0c-0.1-0.2-0.2-0.4-0.3-0.6c-1.5-2.8-4.8-4.1-7.8-2.9
				c-1.8,0.7-3.1,2.1-3.7,3.9c-0.5-0.4-1.1-0.7-1.7-0.7c-1.4,0-2.5,1.1-2.5,2.6l0,0.8l0,1c0,0.2,0,0.4,0.1,0.6c0,0,0,0.1,0,0.1
				c0,0.2,0.1,0.4,0.2,0.5l0.2,0.6l0.9,2.3l0.5,1.1l0.1,0.2c0.3,0.7,0.8,1.4,1.5,1.7l3.4,1.9c1.4,0.7,2.9,1,4.5,0.6l3.6-0.8
				c0,0,0,0,0,0c0.1-0.1,0.1-0.1,0.2-0.2c0,0,0,0,0.1-0.1c0,0,0.1-0.1,0.1-0.1c0.1,0,0.1-0.1,0.2-0.1c0,0,0,0,0.1-0.1
				c0.1-0.1,0.1-0.1,0.2-0.2c0,0,0,0,0,0c0.1-0.1,0.1-0.1,0.2-0.2c0,0,0,0,0,0c0,0,0.1-0.1,0.1-0.1c0.1-0.1,0.1-0.1,0.2-0.2
				c0.1-0.1,0.1-0.1,0.2-0.2c0.1-0.1,0.2-0.2,0.2-0.3c0,0,0,0,0,0c0,0,0,0,0,0c0,0,0,0,0,0h0L26.8,36c-1.2,0.3-2.5,0.1-3.6-0.5
				l-3.4-1.9c-0.4-0.2-0.7-0.6-0.9-1c0-0.1-0.1-0.1-0.1-0.2l-0.4-0.9l-0.9-2.3l-0.4-1c-0.1-0.3-0.2-0.5-0.2-0.8v0l0-1.7
				c0-0.8,0.6-1.4,1.4-1.4c0.8,0,1.4,0.6,1.4,1.4v0c0,0.9,0.2,1.7,0.5,2.5c0.2,0.4,0.4,0.8,0.6,1.1c0.7,1,1.7,1.8,2.9,2.3
				c0.7,0.3,1.4,0.4,2.2,0.4c0.8,0,1.5-0.1,2.2-0.4c1.1-0.4,2.1-1.1,2.8-2.1c0.2-0.3,0.4-0.6,0.6-1c0-0.1,0.1-0.2,0.1-0.3
				c0.1-0.3,0-0.6-0.3-0.8c-0.1,0-0.1,0-0.2,0h-0.3l-1.9,0l-2,0c-1.3,0-2.3-1-2.3-2.3c0-0.3,0.3-0.6,0.6-0.6l5.9,0l1.2,0l0.7,0
				l2.4,1.6v0C35.5,26.1,35.5,26,35.5,25.9z M25.4,23.4c-0.9,0-1.7,0.8-1.7,1.7c0,1.3,0.7,2.4,1.8,3c0.5,0.3,1,0.4,1.6,0.4l3.1,0
				c-0.2,0.3-0.4,0.5-0.6,0.7c-1.7,1.7-4.4,2.1-6.5,0.7c-0.3-0.2-0.6-0.4-0.8-0.7c-0.3-0.3-0.6-0.7-0.8-1.1
				c-0.9-1.6-0.8-3.7,0.3-5.3c1-1.4,2.6-2.3,4.3-2.3c1.9,0,3.7,1.1,4.6,2.9L25.4,23.4z"/>
		</g>
		<path class="st4" d="M35.5,26.3c0,3.3-1.2,6.2-3.3,8.5h0L26.8,36c-1.2,0.3-2.5,0.1-3.6-0.5l-3.4-1.9c-0.4-0.2-0.7-0.6-0.9-1
			c0-0.1-0.1-0.1-0.1-0.2l-0.4-0.9l-0.9-2.3l-0.4-1c-0.1-0.3-0.2-0.5-0.2-0.8v0l0-1.7c0-0.8,0.6-1.4,1.4-1.4c0.8,0,1.4,0.6,1.4,1.4
			v0c0,0.9,0.2,1.7,0.5,2.5c0.2,0.4,0.4,0.8,0.6,1.1c0.7,1,1.7,1.8,2.9,2.3c0.7,0.3,1.4,0.4,2.2,0.4c0.8,0,1.5-0.1,2.2-0.4
			c1.1-0.4,2.1-1.1,2.8-2.1c0.2-0.3,0.4-0.6,0.6-1c0-0.1,0.1-0.2,0.1-0.3c0.1-0.3,0-0.6-0.3-0.8c-0.1,0-0.1,0-0.2,0h-0.3l-1.9,0
			l-2,0c-1.3,0-2.3-1-2.3-2.3c0-0.3,0.3-0.6,0.6-0.6l5.9,0l1.2,0l0.7,0l2.4,1.6C35.5,26.2,35.5,26.2,35.5,26.3z"/>
		<path class="st5" d="M27.1,28.6l3.1,0c-0.2,0.3-0.4,0.5-0.6,0.7c-1.7,1.7-4.4,2.1-6.5,0.7c-0.3-0.2-0.6-0.4-0.8-0.7
			c-0.3-0.3-0.6-0.7-0.8-1.1c-0.9-1.6-0.8-3.7,0.3-5.3c1-1.4,2.6-2.3,4.3-2.3c1.9,0,3.7,1.1,4.6,2.9l-5.2,0c-0.9,0-1.7,0.8-1.7,1.7
			c0,1.3,0.7,2.4,1.8,3C25.9,28.4,26.5,28.6,27.1,28.6z"/>
		<path class="st4" d="M31.5,22.8c-1.5-2.8-4.8-4.1-7.8-2.9c-1.8,0.7-3.1,2.1-3.7,3.9c-0.5-0.4-1.1-0.7-1.7-0.7
			c-1.4,0-2.5,1.1-2.5,2.6l0,0.8c-0.8-0.9-1.3-2.1-1.3-3.4c0-2.9,2-5.3,4.7-5.7c1-0.1,1.9-0.5,2.6-1c0.5-0.3,0.9-0.9,1.3-1.5
			c0.4,0.7,0.8,1.2,1.3,1.5c0.8,0.5,1.6,0.9,2.6,1C29.4,17.7,31.4,20,31.5,22.8z"/>
	</g>
</g>
<g>
	<g>
		<g>
			<path class="st6" d="M54.8,19.2c-0.3-0.3-0.7-0.5-1.2-0.5c-0.5,0-0.9,0.2-1.2,0.5c-0.3,0.3-0.5,0.7-0.5,1.2v0
				c-0.2-0.2-0.3-0.3-0.5-0.5c-0.5-0.4-1.1-0.7-1.7-0.9c-0.7-0.2-1.4-0.4-2.2-0.4c-1.2,0-2.4,0.3-3.4,1c-1,0.7-1.8,1.6-2.4,2.7
				c-0.6,1.2-0.9,2.5-0.9,4c0,1.5,0.3,2.8,0.9,4c0.6,1.2,1.4,2.1,2.5,2.7c1,0.7,2.2,1,3.5,1c0.7,0,1.4-0.1,2-0.3
				c0.6-0.2,1.1-0.5,1.6-0.8c0.3-0.2,0.6-0.5,0.8-0.7c0,0.5,0.2,0.9,0.5,1.2c0.3,0.3,0.7,0.5,1.2,0.5c0.5,0,0.9-0.2,1.2-0.5
				c0.3-0.3,0.5-0.7,0.5-1.2V20.4C55.3,19.9,55.1,19.5,54.8,19.2z M51.6,28.8c-0.3,0.7-0.8,1.3-1.4,1.7c-0.6,0.4-1.3,0.6-2.1,0.6
				c-0.8,0-1.5-0.2-2.1-0.6c-0.6-0.4-1.1-1-1.4-1.7c-0.3-0.7-0.5-1.5-0.5-2.4c0-0.9,0.2-1.7,0.5-2.4c0.3-0.7,0.8-1.3,1.4-1.7
				c0.6-0.4,1.3-0.6,2.1-0.6c0.8,0,1.5,0.2,2.1,0.6c0.6,0.4,1.1,1,1.4,1.7c0.3,0.7,0.5,1.5,0.5,2.4C52.1,27.3,51.9,28.1,51.6,28.8z"
				/>
		</g>
		<g>
			<path class="st6" d="M80.8,25.1v7.1c0,0.5-0.2,0.9-0.5,1.2c-0.3,0.3-0.7,0.5-1.2,0.5c-0.5,0-0.9-0.2-1.2-0.5
				c-0.3-0.3-0.5-0.7-0.5-1.2v-7.1c0-0.6-0.1-1.2-0.2-1.6c-0.1-0.5-0.4-0.9-0.8-1.2c-0.4-0.3-0.9-0.4-1.7-0.4
				c-0.7,0-1.3,0.1-1.8,0.4c-0.5,0.3-0.9,0.7-1.1,1.2c-0.2,0.5-0.4,1-0.4,1.6v7.1c0,0.5-0.2,0.9-0.5,1.2c-0.3,0.3-0.7,0.5-1.2,0.5
				c-0.5,0-0.9-0.2-1.2-0.5c-0.3-0.3-0.5-0.7-0.5-1.2v-7.1c0-0.6-0.1-1.2-0.2-1.6c-0.1-0.5-0.4-0.9-0.8-1.2
				c-0.4-0.3-0.9-0.4-1.7-0.4c-0.7,0-1.3,0.1-1.8,0.4c-0.5,0.3-0.9,0.7-1.1,1.2c-0.2,0.5-0.4,1-0.4,1.6v7.1c0,0.5-0.2,0.9-0.5,1.2
				c-0.3,0.3-0.7,0.5-1.2,0.5c-0.5,0-0.9-0.2-1.2-0.5c-0.3-0.3-0.5-0.7-0.5-1.2V20.7c0-0.5,0.2-0.9,0.5-1.2c0.3-0.3,0.7-0.5,1.2-0.5
				c0.5,0,0.9,0.2,1.2,0.5c0.3,0.3,0.5,0.7,0.5,1.2v0.5c0.1-0.1,0.2-0.2,0.3-0.4c0.3-0.4,0.7-0.7,1.1-1c0.4-0.3,0.9-0.6,1.4-0.8
				c0.5-0.2,1.1-0.3,1.7-0.3c1.5,0,2.6,0.4,3.3,1.1c0.5,0.5,0.9,1.2,1.2,2c0.2-0.4,0.5-0.8,1-1.3c0.5-0.5,1-0.9,1.7-1.2
				c0.7-0.3,1.4-0.5,2.2-0.5c1.3,0,2.3,0.3,3,0.9c0.7,0.6,1.2,1.3,1.4,2.3C80.7,22.8,80.8,23.9,80.8,25.1z"/>
		</g>
		<g>
			<path class="st6" d="M97.6,19.2c-0.3-0.3-0.7-0.5-1.2-0.5c-0.5,0-0.9,0.2-1.2,0.5c-0.3,0.3-0.5,0.7-0.5,1.2v0
				c-0.2-0.2-0.3-0.3-0.5-0.5c-0.5-0.4-1.1-0.7-1.7-0.9c-0.7-0.2-1.4-0.4-2.2-0.4c-1.2,0-2.4,0.3-3.4,1c-1,0.7-1.8,1.6-2.4,2.7
				c-0.6,1.2-0.9,2.5-0.9,4c0,1.5,0.3,2.8,0.9,4c0.6,1.2,1.4,2.1,2.5,2.7c1,0.7,2.2,1,3.5,1c0.7,0,1.4-0.1,2-0.3
				c0.6-0.2,1.1-0.5,1.6-0.8c0.3-0.2,0.6-0.5,0.8-0.7c0,0.5,0.2,0.9,0.5,1.2c0.3,0.3,0.7,0.5,1.2,0.5c0.5,0,0.9-0.2,1.2-0.5
				c0.3-0.3,0.5-0.7,0.5-1.2V20.4C98.1,19.9,97.9,19.5,97.6,19.2z M94.4,28.8C94,29.5,93.6,30,93,30.5c-0.6,0.4-1.3,0.6-2.1,0.6
				c-0.8,0-1.5-0.2-2.1-0.6c-0.6-0.4-1.1-1-1.4-1.7c-0.3-0.7-0.5-1.5-0.5-2.4c0-0.9,0.2-1.7,0.5-2.4c0.3-0.7,0.8-1.3,1.4-1.7
				c0.6-0.4,1.3-0.6,2.1-0.6c0.8,0,1.5,0.2,2.1,0.6c0.6,0.4,1.1,1,1.4,1.7c0.3,0.7,0.5,1.5,0.5,2.4C94.9,27.3,94.7,28.1,94.4,28.8z"
				/>
		</g>
		<g>
			<path class="st6" d="M105.3,32.1c0,0.5-0.2,0.9-0.5,1.2c-0.3,0.3-0.7,0.5-1.2,0.5c-0.5,0-0.8-0.2-1.2-0.5
				c-0.3-0.3-0.5-0.7-0.5-1.2V15c0-0.5,0.2-0.9,0.5-1.2c0.3-0.3,0.7-0.5,1.2-0.5c0.5,0,0.9,0.2,1.2,0.5c0.3,0.3,0.5,0.7,0.5,1.2
				V32.1z"/>
		</g>
	</g>
	<g>
		<g class="st0">
			<path class="st3" d="M35.5,26.3c0,3.3-1.2,6.2-3.3,8.5h0c0,0,0,0,0,0c0,0,0,0,0,0c0,0,0,0,0,0c-0.1,0.1-0.2,0.2-0.2,0.3
				c-0.1,0.1-0.1,0.1-0.2,0.2c-0.1,0.1-0.1,0.1-0.2,0.2c0,0-0.1,0.1-0.1,0.1c0,0,0,0,0,0c-0.1,0.1-0.1,0.1-0.2,0.2c0,0,0,0,0,0
				c-0.1,0.1-0.1,0.1-0.2,0.2c0,0,0,0-0.1,0.1c-0.1,0-0.1,0.1-0.2,0.1c0,0-0.1,0.1-0.1,0.1c0,0,0,0-0.1,0.1
				c-0.1,0.1-0.1,0.1-0.2,0.2c0,0,0,0,0,0L27,37.2c-1.5,0.4-3.1,0.1-4.5-0.6l-3.4-1.9c-0.7-0.4-1.2-1-1.5-1.7l-0.1-0.2l-0.5-1.1
				l-0.9-2.3l-0.2-0.6c-0.1-0.2-0.1-0.3-0.2-0.5c0,0,0-0.1,0-0.1c-0.2-0.1-0.4-0.3-0.6-0.5c-1.2-1.1-1.9-2.8-1.9-4.6
				c0-3.4,2.4-6.4,5.6-6.8c0.8-0.1,1.5-0.4,2.1-0.8c0.4-0.3,0.9-1,1.2-1.7c0.2,0,0.5,0,0.7,0c0.3,0,0.5,0,0.8,0
				c0.3,0.7,0.7,1.4,1.2,1.7c0.6,0.4,1.3,0.7,2.1,0.8c3.2,0.4,5.6,3.4,5.6,6.8c0,0.1,0,0.3,0,0.4l0.7,0c0.1,0,0.2,0,0.3,0.1l1.8,1.2
				c0,0.1,0,0.1,0,0.2c0,0.1,0,0.1,0,0.2c0,0.1,0,0.1,0,0.2c0,0,0,0.1,0,0.1c0,0.1,0,0.2,0,0.2c0,0.1,0,0.2,0,0.3c0,0.1,0,0.2,0,0.2
				v0C35.5,26.2,35.5,26.2,35.5,26.3z"/>
		</g>
		<g>
			<g>
				<path class="st6" d="M30.6,36.3c-2.1,1.6-4.8,2.6-7.7,2.6c-7,0-12.6-5.6-12.6-12.6c0-6.7,5.3-12.2,11.9-12.6
					c-0.3,0.7-0.7,1.4-1.2,1.7c-0.6,0.4-1.3,0.7-2.1,0.8c-3.2,0.4-5.6,3.4-5.6,6.8c0,1.8,0.7,3.4,1.9,4.6c0.2,0.2,0.4,0.3,0.6,0.5
					c0,0,0,0.1,0,0.1c0,0.2,0.1,0.4,0.2,0.5l0.2,0.6l0.9,2.3l0.5,1.1l0.1,0.2c0.3,0.7,0.8,1.4,1.5,1.7l3.4,1.9
					c1.4,0.7,2.9,1,4.5,0.6L30.6,36.3z"/>
			</g>
			<g>
				<path class="st6" d="M35.4,24.7l-1.8-1.2c-0.1-0.1-0.2-0.1-0.3-0.1l-0.7,0c0-0.1,0-0.3,0-0.4c0-3.4-2.4-6.4-5.6-6.8
					c-0.8-0.1-1.5-0.4-2.1-0.8c-0.4-0.3-0.9-1-1.2-1.7C29.8,14.1,34.7,18.7,35.4,24.7z"/>
			</g>
			<g>
				<g>
					<path class="st6" d="M32.6,23c0,0.1,0,0.3,0,0.4l-0.8,0c-0.1-0.2-0.2-0.4-0.3-0.6c-0.1-2.8-2.1-5.1-4.7-5.4
						c-1-0.1-1.9-0.5-2.6-1c-0.5-0.3-0.9-0.9-1.3-1.5c-0.4,0.7-0.8,1.2-1.3,1.5c-0.8,0.5-1.6,0.9-2.6,1c-2.7,0.4-4.7,2.8-4.7,5.7
						c0,1.4,0.5,2.6,1.3,3.4l0,1c0,0.2,0,0.4,0.1,0.6c-0.2-0.1-0.4-0.3-0.6-0.5c-1.2-1.1-1.9-2.8-1.9-4.6c0-3.4,2.4-6.4,5.6-6.8
						c0.8-0.1,1.5-0.4,2.1-0.8c0.4-0.3,0.9-1,1.2-1.7c0.1-0.3,0.2-0.6,0.2-0.8c-1-0.3-1.7-1.1-1.7-2.2c0-1.3,1-2.3,2.3-2.3
						c0.3,0,0.6,0.3,0.6,0.6c0,0.3-0.3,0.6-0.6,0.6c-0.6,0-1.1,0.5-1.1,1.1s0.5,1.1,1.1,1.1c0.6,0,1.1-0.5,1.1-1.1c0,0,0,0,0,0
						c0-0.3,0.3-0.6,0.6-0.6c0.3,0,0.6,0.3,0.6,0.6c0,1.1-0.7,2-1.7,2.2c0,0.3,0.1,0.6,0.2,0.8c0.3,0.7,0.7,1.4,1.2,1.7
						c0.6,0.4,1.3,0.7,2.1,0.8C30.2,16.7,32.6,19.6,32.6,23z"/>
				</g>
			</g>
		</g>
		<path class="st4" d="M35.5,26.3c0,3.3-1.2,6.2-3.3,8.5h0L26.8,36c-1.2,0.3-2.5,0.1-3.6-0.5l-3.4-1.9c-0.4-0.2-0.7-0.6-0.9-1
			c0-0.1-0.1-0.1-0.1-0.2l-0.4-0.9l-0.9-2.3l-0.4-1c-0.1-0.3-0.2-0.5-0.2-0.8v0l0-1.7c0-0.8,0.6-1.4,1.4-1.4c0.8,0,1.4,0.6,1.4,1.4
			v0c0,0.9,0.2,1.7,0.5,2.5c0.2,0.4,0.4,0.8,0.6,1.1c0.7,1,1.7,1.8,2.9,2.3c0.7,0.3,1.4,0.4,2.2,0.4c0.8,0,1.5-0.1,2.2-0.4
			c1.1-0.4,2.1-1.1,2.8-2.1c0.2-0.3,0.4-0.6,0.6-1c0-0.1,0.1-0.2,0.1-0.3c0.1-0.3,0-0.6-0.3-0.8c-0.1,0-0.1,0-0.2,0h-0.3l-1.9,0
			l-2,0c-1.3,0-2.3-1-2.3-2.3c0-0.3,0.3-0.6,0.6-0.6l5.9,0l1.2,0l0.7,0l2.4,1.6C35.5,26.2,35.5,26.2,35.5,26.3z"/>
		<path class="st5" d="M27.1,28.6l3.1,0c-0.2,0.3-0.4,0.5-0.6,0.7c-1.7,1.7-4.4,2.1-6.5,0.7c-0.3-0.2-0.6-0.4-0.8-0.7
			c-0.3-0.3-0.6-0.7-0.8-1.1c-0.9-1.6-0.8-3.7,0.3-5.3c1-1.4,2.6-2.3,4.3-2.3c1.9,0,3.7,1.1,4.6,2.9l-5.2,0c-0.9,0-1.7,0.8-1.7,1.7
			c0,1.3,0.7,2.4,1.8,3C25.9,28.4,26.5,28.6,27.1,28.6z"/>
	</g>
</g>
</svg>
