<svg id="Layer_1" data-name="Layer 1" xmlns="http://www.w3.org/2000/svg" width="487.17" height="352.95" viewBox="0 0 487.17 352.95">
  <defs>
    <style>
      .cls-1 {
        fill: #ecfdf5;
      }

      .cls-2 {
        fill: #059669;
      }

      .cls-3 {
        fill: #6ee7b7;
      }

      .cls-4 {
        fill: #10b981;
      }

      .cls-5 {
        fill: #e3ffd2;
      }

      .cls-6 {
        fill: #34d399;
      }

      .cls-7 {
        fill: #fff;
      }

      .cls-8 {
        opacity: 0.6;
      }

      .cls-9 {
        opacity: 0.5;
      }

      .cls-10 {
        fill: #4f1a44;
      }

      .cls-11 {
        fill: #83bb26;
      }

      .cls-12 {
        fill: #fdad9b;
      }

      .cls-13 {
        fill: #065f46;
      }

      .cls-14 {
        fill: #002b34;
      }

      .cls-15 {
        fill: #060633;
      }

      .cls-16 {
        fill: #ff4929;
      }

      .cls-17 {
        fill: #ffbb01;
      }

      .cls-18 {
        fill: #e08b65;
      }

      .cls-19 {
        fill: #020202;
      }

      .cls-20 {
        fill: #56335b;
      }
    </style>
  </defs>
  <path class="cls-1" d="M399,76.31S385.67,50.7,340,34,229.82,65.18,193.08,86.33,121.83,56.27,74,76.31,26.09,159.8,57.26,179.84s47.87,27.83,15.59,61.23-46.76,82.38-6.68,96.85,103.55-31.3,181.46-17.81c29.84,5.16,100.19,43.41,144.72,31.17S487,270,446.9,229.94,415.73,103,399,76.31Z" transform="translate(-4.21 -30.54)"/>
  <g>
    <path class="cls-2" d="M128.17,110.23a11.06,11.06,0,0,1,11-5.22c7.85.74,6.92,6.73,10.66,6.17s9,0,10.09,3.74,6.17,1.68,6.36,4.86-5.79,5.42-12.71,2.61-10.29,2.18-20,1.28-10.93-2-16.68-1.46-5.62-3.38-3-6S127.05,113.84,128.17,110.23Z" transform="translate(-4.21 -30.54)"/>
    <path class="cls-2" d="M186.55,71.58s5.81-11.18,20.52-9.78,13,12.61,20,11.56,16.81,0,18.91,7,11.56,3.15,11.91,9.11S247,99.62,234,94.37s-19.26,4.08-37.47,2.39S176.1,93,165.32,94s-10.52-6.33-5.62-11.23S184.45,78.35,186.55,71.58Z" transform="translate(-4.21 -30.54)"/>
    <path class="cls-2" d="M411.6,78.72a9.21,9.21,0,0,1,9.13-4.35c6.54.62,5.76,5.61,8.87,5.14s7.48,0,8.41,3.12,5.14,1.4,5.3,4-4.83,4.52-10.59,2.19-8.57,1.81-16.67,1.06-9.1-1.69-13.89-1.22-4.68-2.82-2.5-5S410.66,81.73,411.6,78.72Z" transform="translate(-4.21 -30.54)"/>
    <g>
      <path class="cls-3" d="M395.71,161.44c2.55,1.27,3.71.83,4.2-.17s.14-2.18-2.41-3.44c-4.64-2.3-7.78-1.6-7.78-1.6S391,159.11,395.71,161.44Z" transform="translate(-4.21 -30.54)"/>
      <path class="cls-3" d="M397.14,179.82c2,2,3.24,2,4,1.2S402,179,400,177c-3.64-3.67-6.84-4-6.84-4S393.44,176.09,397.14,179.82Z" transform="translate(-4.21 -30.54)"/>
      <g>
        <path class="cls-3" d="M401.76,228.69l.53-.08a80.69,80.69,0,0,1,.56-21.82A104.16,104.16,0,0,1,423,160.24l-.43-.33a105,105,0,0,0-20.25,46.82A80.93,80.93,0,0,0,401.76,228.69Z" transform="translate(-4.21 -30.54)"/>
        <path class="cls-3" d="M409.67,182.11l.43-.32c-11.68-15.67-6.76-36.06-6.71-36.26l-.52-.13C402.82,145.6,397.83,166.23,409.67,182.11Z" transform="translate(-4.21 -30.54)"/>
        <path class="cls-3" d="M417.14,172.83a19,19,0,0,0,9.42-3.45l-.33-.42a18.09,18.09,0,0,1-11.61,3.31l0,.53A16.9,16.9,0,0,0,417.14,172.83Z" transform="translate(-4.21 -30.54)"/>
        <path class="cls-3" d="M401.71,215.41c10.94-2,19.49-8,25.43-17.86a6.88,6.88,0,0,1,.46-.72l-.05,0-.21-.5c-.15.06-.23.2-.66.91-5.85,9.68-14.29,15.61-25.07,17.61Z" transform="translate(-4.21 -30.54)"/>
        <path class="cls-3" d="M416.89,208.53l.51-.18c-2.4-6.9,1.55-17.57,1.59-17.68l-.5-.19a44.72,44.72,0,0,0-1.73,6.32C416.11,200.1,415.6,204.82,416.89,208.53Z" transform="translate(-4.21 -30.54)"/>
        <path class="cls-3" d="M423.13,157.22c-2.66,2.76-2.8,4.21-2,5s2.24.58,4.9-2.18c4.84-5,5.73-8.87,5.73-8.87S428.05,152.11,423.13,157.22Z" transform="translate(-4.21 -30.54)"/>
        <path class="cls-3" d="M425,167.75c-3.37,1.83-3.94,3.17-3.41,4.15s2,1.23,5.34-.61c6.13-3.34,8.13-6.72,8.13-6.72S431.22,164.36,425,167.75Z" transform="translate(-4.21 -30.54)"/>
        <path class="cls-3" d="M417.27,189c-1.12,2.61-.62,3.74.4,4.18s2.19,0,3.31-2.59c2-4.76,1.17-7.86,1.17-7.86S419.34,184.21,417.27,189Z" transform="translate(-4.21 -30.54)"/>
        <path class="cls-3" d="M411,164.66c-.45,2.81.3,3.79,1.41,4s2.12-.52,2.57-3.33c.82-5.11-.77-7.9-.77-7.9S411.87,159.47,411,164.66Z" transform="translate(-4.21 -30.54)"/>
        <path class="cls-3" d="M409.59,206.19c.36,2.82,1.36,3.54,2.46,3.4s1.9-1.09,1.54-3.91c-.64-5.14-3-7.37-3-7.37S408.93,201,409.59,206.19Z" transform="translate(-4.21 -30.54)"/>
        <path class="cls-3" d="M424.68,197.24c-1.65,2.31-1.41,3.53-.5,4.18s2.13.48,3.78-1.83c3-4.22,2.83-7.43,2.83-7.43S427.74,193,424.68,197.24Z" transform="translate(-4.21 -30.54)"/>
        <path class="cls-3" d="M401.59,143.3c-.63,3.79.07,5.06,1.17,5.24s2.18-.79,2.81-4.58c1.14-6.89-.3-10.55-.3-10.55S402.75,136.31,401.59,143.3Z" transform="translate(-4.21 -30.54)"/>
      </g>
    </g>
    <path class="cls-3" d="M336.5,335.74s34-134.36,70.85-124.39S363.43,295.86,355.48,336Z" transform="translate(-4.21 -30.54)"/>
    <g>
      <path class="cls-4" d="M369,310.24s51.74-110.57,86.94-95.54-54.22,66.48-68.06,99.15Z" transform="translate(-4.21 -30.54)"/>
      <path class="cls-5" d="M379.53,312.35c9.16-22.73,26.84-44.09,40.06-58a292.77,292.77,0,0,1,26.77-25l-.6-.77a292.87,292.87,0,0,0-26.88,25.1c-13.28,14-31,35.43-40.25,58.3Z" transform="translate(-4.21 -30.54)"/>
    </g>
    <g>
      <path class="cls-6" d="M467.94,306.32c-16.75,9.38-5.46,35.63-27.45,36.85s-20.7-.62-27.81,11.27c0,0-1.2,9.76-8.9,13.68-30.36,15.45-88.76-18.56-63.29-55,1.83-2.63,5.13-4.44,8.84-6.24,20.12-9.77,29.68-2.08,38.7-32.08s42.55-1.22,56.34-6.81,25-13.67,40.61-2S484.7,297,467.94,306.32Z" transform="translate(-4.21 -30.54)"/>
      <g>
        <path class="cls-7" d="M361.28,344.55l-1-.8c.35-.43,36.14-43.61,128.53-74.27l.4,1.2C397.19,301.22,361.63,344.12,361.28,344.55Z" transform="translate(-4.21 -30.54)"/>
        <path class="cls-7" d="M408.18,290.89c-15.66-7.29-20.5-15.4-20.7-15.74l1.09-.63c.05.08,4.88,8.12,20.14,15.23Z" transform="translate(-4.21 -30.54)"/>
        <path class="cls-7" d="M414.29,303.27c-5.31-5-7.66-13.88-6.81-25.62a84.46,84.46,0,0,1,2.89-16.28l1.21.37c-.09.28-8.63,29.06,3.58,40.61Z" transform="translate(-4.21 -30.54)"/>
        <path class="cls-7" d="M438.14,293.67c-1.84-.77-2.87-1.33-2.92-1.35l.61-1.11c.21.12,22,11.74,46.32,3.48l.4,1.19C462.94,302.54,445,296.56,438.14,293.67Z" transform="translate(-4.21 -30.54)"/>
        <path class="cls-7" d="M458.75,317.9a29.78,29.78,0,0,1-12.65-14.33,21.75,21.75,0,0,1-1.74-7.82l1.26,0c0,.13,0,12.74,13.78,21.05Z" transform="translate(-4.21 -30.54)"/>
      </g>
    </g>
    <g class="cls-8">
      <path class="cls-3" d="M151.78,350.5s0-113.79-49.72-130.08a11.15,11.15,0,0,0-9.7,1.23C70.44,236.36,130,311.44,133.23,348.74Z" transform="translate(-4.21 -30.54)"/>
    </g>
    <g>
      <path class="cls-4" d="M137.48,345.07S77.75,189.59,28.38,206.64s67.37,95.72,83.07,141.51Z" transform="translate(-4.21 -30.54)"/>
      <path class="cls-7" d="M122.93,346.92C112.67,315.1,90.67,284.33,74,264.12A399.86,399.86,0,0,0,40,227.5l.91-1a400.32,400.32,0,0,1,34.15,36.75c16.72,20.3,38.83,51.22,49.15,83.24Z" transform="translate(-4.21 -30.54)"/>
    </g>
    <g>
      <path class="cls-6" d="M25.72,307.13c14.66,6.83,6.81,29.59,25.35,29.24s17.35-1.81,24.07,7.73c0,0,1.62,8.12,8.33,10.93,26.46,11.09,73.39-21.13,49.73-50.11-1.71-2.09-4.59-3.4-7.82-4.68-17.51-6.95-25.06.1-34.5-24.54s-35.82,1.64-47.75-2.2-21.83-9.92-34.24.83S11.06,300.31,25.72,307.13Z" transform="translate(-4.21 -30.54)"/>
      <g class="cls-9">
        <path class="cls-7" d="M117.69,332.58l.78-.72c-.33-.35-33.08-34.38-112.59-54.37l-.26,1C84.83,298.44,117.37,332.25,117.69,332.58Z" transform="translate(-4.21 -30.54)"/>
        <path class="cls-7" d="M75,290.45c12.7-7.1,16.26-14.22,16.41-14.52l-1-.46c0,.07-3.6,7.13-16,14Z" transform="translate(-4.21 -30.54)"/>
        <path class="cls-7" d="M70.59,301.22c4.15-4.55,5.57-12.13,4.12-21.94a70.91,70.91,0,0,0-3.44-13.49l-1,.38c.09.24,9.06,23.88-.47,34.34Z" transform="translate(-4.21 -30.54)"/>
        <path class="cls-7" d="M50,294.65a26.92,26.92,0,0,0,2.37-1.32l-.58-.89c-.17.11-17.73,11.23-38.69,5.81l-.26,1C29.69,303.65,44.4,297.5,50,294.65Z" transform="translate(-4.21 -30.54)"/>
        <path class="cls-7" d="M34.16,316.29a25.05,25.05,0,0,0,9.74-12.83,18.51,18.51,0,0,0,1-6.67l-1.06.09c0,.11.78,10.7-10.26,18.54Z" transform="translate(-4.21 -30.54)"/>
      </g>
    </g>
    <path class="cls-4" d="M39.31,362.88c0,11.38,99.27,20.61,221.73,20.61s221.74-9.23,221.74-20.61S383.5,342.28,261,342.28,39.31,351.5,39.31,362.88Z" transform="translate(-4.21 -30.54)"/>
    <path class="cls-10" d="M447.67,370.93a.75.75,0,0,0-.23-.65,2.89,2.89,0,0,0-1.82-.51c.78-.28,1.8-.74,2-1.32a.73.73,0,0,0-.12-.69c-.95-1.27-4.11.78-4.24.86l.14.22c.86-.56,3.23-1.81,3.89-.92a.43.43,0,0,1,.08.44c-.24.68-2.07,1.27-2.76,1.44l.05.25s2-.19,2.59.41a.51.51,0,0,1,.15.44Z" transform="translate(-4.21 -30.54)"/>
    <path class="cls-10" d="M404.73,355.44l.26,0a.51.51,0,0,1,.15-.44c.6-.59,2.57-.41,2.59-.41l0-.25c-.69-.17-2.52-.76-2.76-1.44a.45.45,0,0,1,.08-.44c.67-.9,3,.36,3.89.92l.14-.21c-.13-.09-3.29-2.14-4.24-.87a.73.73,0,0,0-.12.69c.21.58,1.23,1,2,1.32a2.91,2.91,0,0,0-1.82.51A.79.79,0,0,0,404.73,355.44Z" transform="translate(-4.21 -30.54)"/>
    <path class="cls-10" d="M105.21,364l.26,0a.49.49,0,0,1,.15-.43c.59-.6,2.57-.42,2.59-.42l.05-.25c-.69-.17-2.52-.76-2.76-1.44a.43.43,0,0,1,.08-.44c.66-.89,3,.36,3.89.92l.14-.21c-.13-.09-3.3-2.14-4.24-.86a.71.71,0,0,0-.12.68c.21.58,1.23,1,2,1.32a2.94,2.94,0,0,0-1.83.51A.78.78,0,0,0,105.21,364Z" transform="translate(-4.21 -30.54)"/>
    <path class="cls-10" d="M206.79,374.94c.11-.07,2.68-1.63,2.68-3a1.24,1.24,0,0,0-.71-1.06,1.89,1.89,0,0,0-1.58-.22c-1.3.39-2.24,2-2.49,2.53-1.33-.79-2.32-1-2.94-.57-.89.59-.67,2.16-.66,2.22l.26,0s-.2-1.48.55-2c.55-.37,1.48-.15,2.77.64l.13.08.06-.13s1-2.1,2.4-2.52a1.64,1.64,0,0,1,1.37.19,1,1,0,0,1,.58.84c0,1.22-2.53,2.76-2.56,2.77Z" transform="translate(-4.21 -30.54)"/>
    <path class="cls-10" d="M221.3,349.82a16,16,0,0,0,1.87-2.38c1.14-1.8,1.41-3.23.81-4.25a.86.86,0,0,0-.81-.52c-1,.12-2.19,2.84-2.78,4.46.19-2,.42-6-.69-7.38a1.2,1.2,0,0,0-.87-.47.91.91,0,0,0-.81.35c-1,1.24-.1,5.61.4,7.65-.37-.6-.9-1.27-1.43-1.35a.52.52,0,0,0-.57.27c-.32.6.12,2.11,1.43,3.62l.2-.18c-1.29-1.48-1.64-2.87-1.4-3.31a.26.26,0,0,1,.3-.14c.69.1,1.5,1.6,1.75,2.17l.24-.09c0-.07-1.92-7-.72-8.47a.67.67,0,0,1,.59-.26,1,1,0,0,1,.69.38c1.4,1.71.5,8.3.49,8.37l.26,0c.46-1.46,1.9-5.29,2.95-5.41.2,0,.38.11.55.4,1.33,2.23-2.59,6.27-2.63,6.31Z" transform="translate(-4.21 -30.54)"/>
    <g>
      <path class="cls-11" d="M371.34,347.17s4.72-4.82,3.1-7.56-4.37,5.89-4.37,5.89,1.42-10.2-1.52-10.38,0,10.38,0,10.38-1.09-2.46-2.16-2.61-.76,2.09,1.14,4.28Z" transform="translate(-4.21 -30.54)"/>
      <path class="cls-10" d="M371,347.29c.23-.23,5.43-5.59,3.54-8.78-.3-.5-.65-.74-1.06-.69-.82.1-1.78,1.38-2.85,3.82-.32.75-.61,1.49-.84,2.11.26-2.67.56-8-.91-9.79a1.6,1.6,0,0,0-1.16-.63,1.21,1.21,0,0,0-1.06.47c-1.33,1.63-.13,7.42.53,10.12-.49-.79-1.19-1.68-1.9-1.78a.68.68,0,0,0-.75.36c-.43.78.16,2.79,1.89,4.78l.26-.23c-1.7-2-2.17-3.81-1.85-4.39a.36.36,0,0,1,.4-.18c.92.14,2,2.12,2.32,2.87l.32-.12s-.65-2.35-1.08-4.89c-.57-3.33-.53-5.52.12-6.33a.89.89,0,0,1,.78-.33,1.21,1.21,0,0,1,.91.5c1.86,2.27.67,11,.66,11.07l.34.08c.61-1.94,2.51-7,3.9-7.16.27,0,.51.14.73.52,1.76,3-3.43,8.3-3.48,8.36Z" transform="translate(-4.21 -30.54)"/>
    </g>
    <g>
      <path class="cls-6" d="M469.8,357.72s5.27-5.37,3.46-8.43-4.88,6.57-4.88,6.57,1.59-11.38-1.7-11.58,0,11.58,0,11.58-1.22-2.74-2.4-2.91-.85,2.33,1.27,4.77Z" transform="translate(-4.21 -30.54)"/>
      <path class="cls-10" d="M469.42,357.86c.25-.25,6.06-6.24,3.95-9.8a1.25,1.25,0,0,0-1.19-.77c-.91.11-2,1.54-3.17,4.27-.37.83-.69,1.66-.94,2.35.29-3,.62-8.92-1-10.93a1.77,1.77,0,0,0-1.29-.7,1.35,1.35,0,0,0-1.19.52c-1.48,1.83-.14,8.28.59,11.3-.55-.88-1.32-1.87-2.11-2a.79.79,0,0,0-.85.4c-.47.88.19,3.11,2.12,5.34l.29-.25c-1.9-2.19-2.42-4.26-2.07-4.91a.39.39,0,0,1,.45-.19c1,.14,2.21,2.35,2.58,3.19l.37-.13s-.73-2.62-1.21-5.46c-.64-3.72-.59-6.16.14-7.06a1,1,0,0,1,.87-.37,1.37,1.37,0,0,1,1,.56c2.07,2.53.74,12.26.73,12.36l.37.08c.69-2.16,2.81-7.82,4.36-8,.3,0,.57.15.82.58,2,3.3-3.83,9.27-3.89,9.33Z" transform="translate(-4.21 -30.54)"/>
    </g>
    <path class="cls-10" d="M334,378a18.28,18.28,0,0,0,2.1-2.68c1.28-2,1.59-3.64.91-4.79a.94.94,0,0,0-.91-.58c-.69.07-1.5,1.17-2.42,3.25-.28.63-.52,1.27-.71,1.79.22-2.27.47-6.8-.78-8.33a1.38,1.38,0,0,0-1-.54,1,1,0,0,0-.91.4c-1.13,1.39-.11,6.31.45,8.62-.42-.68-1-1.43-1.61-1.52a.61.61,0,0,0-.65.3c-.36.67.14,2.38,1.62,4.08l.22-.2c-1.45-1.66-1.85-3.24-1.58-3.74a.31.31,0,0,1,.34-.15c.78.11,1.69,1.8,2,2.44l.28-.1s-.56-2-.92-4.16c-.49-2.84-.45-4.7.11-5.39a.72.72,0,0,1,.66-.28,1,1,0,0,1,.77.42c1.59,1.93.57,9.36.56,9.43l.29.07c.52-1.65,2.14-6,3.33-6.1.22,0,.42.12.62.44,1.49,2.52-2.93,7.07-3,7.12Z" transform="translate(-4.21 -30.54)"/>
    <g>
      <g>
        <g>
          <path class="cls-12" d="M302.25,196.25h0a1.82,1.82,0,0,0-1.45,2.11l2.8,15.19a1.81,1.81,0,0,0,2.11,1.45h0a1.81,1.81,0,0,0,1.45-2.1l-2.8-15.2A1.81,1.81,0,0,0,302.25,196.25Z" transform="translate(-4.21 -30.54)"/>
          <path class="cls-12" d="M306.81,195.41h0a1.81,1.81,0,0,0-1.45,2.11l3.13,17A1.81,1.81,0,0,0,310.6,216h0a1.81,1.81,0,0,0,1.45-2.11l-3.13-17A1.81,1.81,0,0,0,306.81,195.41Z" transform="translate(-4.21 -30.54)"/>
          <rect class="cls-12" x="309.76" y="183.82" width="5.02" height="16.1" rx="2.19" transform="translate(-41.69 270.89) rotate(-48.96)"/>
          <path class="cls-12" d="M311.37,194.57h0a1.81,1.81,0,0,0-1.45,2.11l2.51,13.62a1.81,1.81,0,0,0,2.1,1.45h0a1.82,1.82,0,0,0,1.46-2.11L313.48,196A1.82,1.82,0,0,0,311.37,194.57Z" transform="translate(-4.21 -30.54)"/>
          <path class="cls-12" d="M297.57,188.16s-3.54,9.73.35,16c1.34,2.16,14.69-.68,15.45-3.42s-1.82-11.78-1.82-11.78Z" transform="translate(-4.21 -30.54)"/>
          <rect class="cls-12" x="297.48" y="196.71" width="6.02" height="17.43" rx="2.35" transform="translate(-36.46 27.31) rotate(-10.44)"/>
        </g>
        <path class="cls-12" d="M314.29,190.22c1.82-20.11,6-48.85,15.6-71.61a68.79,68.79,0,0,1,4.88-10.14c1.39-2.31-1.1-7.41-5-9.84-3.7-2.28-9.45-1.9-10.36-.77-1.55,1.91-3.2,5.59-5.78,11.43-8.93,20.28-14.28,46.48-16.45,80.26Z" transform="translate(-4.21 -30.54)"/>
        <path class="cls-13" d="M374.21,101.74s-5.84-16.44-26.65-15.69S311,114.14,307.15,172.91c0,0,34.07-7.47,74,10C381.14,182.87,383.35,125.69,374.21,101.74Z" transform="translate(-4.21 -30.54)"/>
        <path class="cls-13" d="M393.19,105.66l-19.11,4.52s-37.89,3.79-47.95,2-11.63-9.22-11.63-9.22a46.72,46.72,0,0,1,27.78-16.39,49,49,0,0,1,5.28-.49c3.09-.22,5.16.09,8.21.06C384.08,85.89,393.19,105.66,393.19,105.66Z" transform="translate(-4.21 -30.54)"/>
        <g>
          <path class="cls-12" d="M355.73,86.11A5.76,5.76,0,0,1,351,82.68l-2.57-6L347.72,75l-4.4-10.22.76,10.59.46,6.36.13,1.81a2.89,2.89,0,0,1-2.39,3.05h0c-.79,1.27-1.87,3.86,1.36,4.89,3.8,1.2,9.94-1.78,12.15-5.33Z" transform="translate(-4.21 -30.54)"/>
          <path class="cls-14" d="M348.48,76.51a1.09,1.09,0,0,0,0,.18c-.26,3.41-3.91,5-3.91,5l0,0-.46-6.36c1.12-.41,2.71-.83,3.64-.37A1.51,1.51,0,0,1,348.48,76.51Z" transform="translate(-4.21 -30.54)"/>
          <path class="cls-12" d="M332.88,66.42c0-6.78,4.46-12.27,10-12.27s10,5.49,10,12.27-4.46,12.28-10,12.28S332.88,73.2,332.88,66.42Z" transform="translate(-4.21 -30.54)"/>
          <path class="cls-12" d="M351.46,68.28c-1.13,1.07-2.71,1.18-3.52.24a2.73,2.73,0,0,1,.56-3.65c1.12-1.07,2.7-1.19,3.52-.24A2.75,2.75,0,0,1,351.46,68.28Z" transform="translate(-4.21 -30.54)"/>
          <path class="cls-15" d="M341.87,66.54a.23.23,0,0,1,0-.43,2.46,2.46,0,0,1,2.93.66.23.23,0,0,1,0,.32.26.26,0,0,1-.32,0,3.79,3.79,0,0,0-2.43-.54A.26.26,0,0,1,341.87,66.54Z" transform="translate(-4.21 -30.54)"/>
          <path class="cls-15" d="M343.66,69c0,.54-.28,1-.67,1s-.73-.41-.74-1,.28-1,.67-1S343.65,68.49,343.66,69Z" transform="translate(-4.21 -30.54)"/>
          <path class="cls-15" d="M333.79,67.72a.22.22,0,0,1-.18-.38,2.45,2.45,0,0,1,3-.52.23.23,0,0,1,.11.3.25.25,0,0,1-.3.12,3.92,3.92,0,0,0-2.46.42A.16.16,0,0,1,333.79,67.72Z" transform="translate(-4.21 -30.54)"/>
          <path class="cls-15" d="M336.4,69.34a.87.87,0,0,1-.25,1.18c-.36.16-.83-.1-1-.6a.87.87,0,0,1,.25-1.18C335.71,68.58,336.18,68.85,336.4,69.34Z" transform="translate(-4.21 -30.54)"/>
          <path class="cls-14" d="M341.21,75.45A7.35,7.35,0,0,0,345,74.23a.25.25,0,0,0-.28-.42s-2.88,1.93-5.26.72a.24.24,0,0,0-.34.11.25.25,0,0,0,.11.34A4.34,4.34,0,0,0,341.21,75.45Z" transform="translate(-4.21 -30.54)"/>
          <path class="cls-14" d="M345,75h.05a.24.24,0,0,0,.2-.29,2.18,2.18,0,0,0-.88-1.48.26.26,0,0,0-.35.09.26.26,0,0,0,.08.35,1.59,1.59,0,0,1,.65,1.12A.26.26,0,0,0,345,75Z" transform="translate(-4.21 -30.54)"/>
        </g>
        <path class="cls-13" d="M383.37,139.1,404.8,359.74s-72.74,11.52-112.25-2.41c0,0,14.43-197.2,19.72-222.92Z" transform="translate(-4.21 -30.54)"/>
        <path class="cls-13" d="M314.5,102.93s-15,29-19.62,76.69c0,0,2.77,11.88,16.67,9.3l13.13-63.21L329,101.27Z" transform="translate(-4.21 -30.54)"/>
        <path class="cls-14" d="M306.07,188.78c.43-15.68,8.58-71.94,8.68-72.51l-.5-.09c-.1.57-8.26,56.87-8.69,72.58Z" transform="translate(-4.21 -30.54)"/>
        <path class="cls-13" d="M358.35,86.14s31.35.7,40.69,23.6c8.1,19.87,8.15,36.61-3.05,49.34s-27.64,15.3-27.64,15.3-.41-20.06-7.08-31.37c0,0,18.42-6.28,7.61-25.15A85.28,85.28,0,0,1,358.35,86.14Z" transform="translate(-4.21 -30.54)"/>
        <path class="cls-14" d="M361.74,142.82c5,4.3,11.41,21.1,7.84,30.1s-10.15-23.93-10-26.44C359.84,143.43,361.14,142.29,361.74,142.82Z" transform="translate(-4.21 -30.54)"/>
        <path class="cls-14" d="M361.37,143.25c16.7-6.87,11.48-23.29,11.43-23.46l-.49.16c.06.16,5.12,16.14-11.13,22.83Z" transform="translate(-4.21 -30.54)"/>
        <path class="cls-14" d="M368.38,174.63c9.83-1.25,18.81-7.64,18.9-7.71l-.3-.41c-.09.06-9,6.38-18.67,7.62Z" transform="translate(-4.21 -30.54)"/>
        <path class="cls-14" d="M352.79,62a78.18,78.18,0,0,1-12.45,1.36,32.42,32.42,0,0,1-8-.68s-2.65-4.88,2-7.9,6.58-5.48,12-2.36S352.79,62,352.79,62Z" transform="translate(-4.21 -30.54)"/>
        <path class="cls-16" d="M338.36,54.85s10,3.55,10.77,9.14.36,14.71-6.29,14.71c-2.8,0-5.36-2.08-5.19-1.8,2.43,4.07-5.53,10-6.66,17.61-1.77,12,2.17,29,4.13,29.51,4,1.09,33.79-30.5,32.21-36.1s-10.08-3.33-10.51-9.7,8.79-19.84-.42-27.28-25.93-.57-26.49,6.2,3,9.28,3,9.28S333.54,55,338.36,54.85Z" transform="translate(-4.21 -30.54)"/>
        <g>
          <path class="cls-17" d="M303.53,141.07c3.27-12.17,15.51-19.45,27.33-16.27s18.76,15.62,15.49,27.78S330.84,172,319,168.85,300.26,153.23,303.53,141.07Z" transform="translate(-4.21 -30.54)"/>
          <path class="cls-7" d="M319.27,163.42l1.15-4.29c-3.93-1.8-5.32-5.44-4.44-8.7,1-3.66,3.64-5.24,8.23-5.87,3.88-.54,5.65-1.21,6.23-3.36.44-1.64-.21-3.85-3.3-4.68a9.77,9.77,0,0,0-5.42,0l-.27-3a10.77,10.77,0,0,1,5.6,0l1.07-4,2.48.67-1.12,4.16c3.52,1.61,5.19,4.84,4.27,8.25-1,3.59-4,4.8-8.53,5.35-3.29.44-5.23,1.42-5.84,3.69s.84,4.55,3.68,5.31a10.77,10.77,0,0,0,6.24-.22l.22,3a11.87,11.87,0,0,1-6.61.17l-1.12,4.15Z" transform="translate(-4.21 -30.54)"/>
        </g>
        <path class="cls-12" d="M330.61,152.19a2.11,2.11,0,0,1,.95-4.11L344.07,151c.17-.38.35-.75.53-1.09l-8.89-2a2.11,2.11,0,0,1,1-4.11l15.41,3.55-1.45-1.83a2.55,2.55,0,0,1,.4-3.58l.59-.47a2.55,2.55,0,0,1,3.58.41l8.51,10.68c.88,1.1,4.8,11.25-2.69,14.62-3.45,1.55-8.61,1.77-15.44-.43l-13.43-3.09a2.1,2.1,0,1,1,.95-4.1l8.35,1.92c0-.37.05-.75.1-1.15l-10.07-2.32a2.11,2.11,0,0,1,.95-4.11l9.92,2.28c.09-.38.2-.76.3-1.14Z" transform="translate(-4.21 -30.54)"/>
      </g>
      <g>
        <g>
          <g>
            <path class="cls-12" d="M226.74,202.1h0a1.09,1.09,0,0,0,1.39.67l8.8-3.07a1.1,1.1,0,0,0,.67-1.4h0a1.1,1.1,0,0,0-1.39-.67l-8.8,3.08A1.09,1.09,0,0,0,226.74,202.1Z" transform="translate(-4.21 -30.54)"/>
            <path class="cls-12" d="M225.82,199.46h0a1.09,1.09,0,0,0,1.39.67l9.84-3.44a1.09,1.09,0,0,0,.67-1.39h0a1.09,1.09,0,0,0-1.39-.67l-9.84,3.44A1.09,1.09,0,0,0,225.82,199.46Z" transform="translate(-4.21 -30.54)"/>
            <rect class="cls-12" x="218.34" y="195.02" width="9.72" height="3.03" rx="1.32" transform="translate(-66.28 250.03) rotate(-57.78)"/>
            <path class="cls-12" d="M224.9,196.82h0a1.09,1.09,0,0,0,1.39.67l7.89-2.76a1.09,1.09,0,0,0,.67-1.39h0a1.1,1.1,0,0,0-1.39-.67l-7.89,2.76A1.09,1.09,0,0,0,224.9,196.82Z" transform="translate(-4.21 -30.54)"/>
            <path class="cls-12" d="M222.35,205.64s6.12,1.21,9.48-1.68c1.17-1-1.76-8.7-3.47-8.9s-6.85,2.17-6.85,2.17Z" transform="translate(-4.21 -30.54)"/>
            <path class="cls-12" d="M227.64,204.72h0a1.09,1.09,0,0,0,1.39.67l7.88-2.75a1.08,1.08,0,0,0,.67-1.38h0a1.09,1.09,0,0,0-1.39-.67l-7.87,2.74A1.11,1.11,0,0,0,227.64,204.72Z" transform="translate(-4.21 -30.54)"/>
          </g>
          <path class="cls-12" d="M222,195.48c-12.16.77-29.69.92-44.15-2.7a41.26,41.26,0,0,1-6.49-2c-1.51-.62-4.32,1.34-5.41,3.91-1,2.42-.26,5.82.5,6.25,1.28.75,3.63,1.4,7.35,2.39,12.92,3.46,29,4.23,49.39,2.41Z" transform="translate(-4.21 -30.54)"/>
          <path class="cls-14" d="M155.57,351.79s.1,4,2.78,5.08,10.45,2.12,7.55,4.67c-1.67,1.46-9.52.52-11.74.52s-4.29,1-5.94-.52c-1.81-1.63,0-9.75,0-9.75a8.93,8.93,0,0,0,3.63.95A7.15,7.15,0,0,0,155.57,351.79Z" transform="translate(-4.21 -30.54)"/>
          <path class="cls-14" d="M135.27,351.5s.1,4,2.78,5.08,10.45,2.13,7.54,4.68c-1.66,1.46-9.51.52-11.73.52s-4.3,1-5.94-.52c-1.82-1.63,0-9.76,0-9.76a8.76,8.76,0,0,0,3.63.95A7,7,0,0,0,135.27,351.5Z" transform="translate(-4.21 -30.54)"/>
          <path class="cls-14" d="M126.92,245.06c0,2,10.85,5.58,24.08,5.12s23.79-2.5,23.74-4.47-10.63-4.55-23.85-4.09C128.7,231.14,126.87,243.08,126.92,245.06Z" transform="translate(-4.21 -30.54)"/>
          <path class="cls-17" d="M138.86,242.14c-3.87-4.4-5.76-1.46-5.76-1.46-2.83-.63-3.67.51-3.67.88a3.93,3.93,0,0,1-2.51,3.5c-.36-8.74-1.26-39.59,3.35-53.09,0,0,2.62-7.41,19.87-7.52,24.88-.15,22.3,22.45,24.6,61.26,0,0-13.81-6-32.59-3.11A3.23,3.23,0,0,0,138.86,242.14Z" transform="translate(-4.21 -30.54)"/>
          <path class="cls-17" d="M120.23,191.63l11.53,7.29s29.48,6.62,37.49,5.46c4.35-.63,10.06-12.26,10.06-12.26s-10.47-9.19-31.74-8.52c-1.24,0-2.26.05-3.42.15C128.14,185.09,120.23,191.63,120.23,191.63Z" transform="translate(-4.21 -30.54)"/>
          <path class="cls-12" d="M144.15,183.75c2.64,3,7.92,5,10.5,4.14,3.22-1.09,1.94-3,1.53-3.44a4.2,4.2,0,0,1-1.35-3.19v-.32l0-1.59-.05-3,0-3-.16-10-3.71,10.18-.63,1.73-.9,2.45-1.28,3.5C147.33,183.09,144.17,183.74,144.15,183.75Z" transform="translate(-4.21 -30.54)"/>
          <path class="cls-14" d="M120.23,191.63c-1.16,1.65.55,4.91,3.84,7.28s6.89,3,8.05,1.3-.55-4.9-3.83-7.27S121.4,190,120.23,191.63Z" transform="translate(-4.21 -30.54)"/>
          <g>
            <path class="cls-12" d="M116.17,254.32h0a1.09,1.09,0,0,0-.75,1.35l2.53,9a1.1,1.1,0,0,0,1.35.76h0a1.11,1.11,0,0,0,.75-1.35l-2.53-9A1.1,1.1,0,0,0,116.17,254.32Z" transform="translate(-4.21 -30.54)"/>
            <path class="cls-12" d="M118.86,253.56h0a1.09,1.09,0,0,0-.75,1.35l2.83,10a1.1,1.1,0,0,0,1.35.75h0a1.1,1.1,0,0,0,.75-1.35l-2.83-10A1.1,1.1,0,0,0,118.86,253.56Z" transform="translate(-4.21 -30.54)"/>
            <rect class="cls-12" x="120.43" y="246.27" width="3.03" height="9.72" rx="1.32" transform="translate(-157.36 173.05) rotate(-54.29)"/>
            <path class="cls-12" d="M121.55,252.8h0a1.11,1.11,0,0,0-.75,1.35l2.27,8a1.1,1.1,0,0,0,1.35.75h0a1.1,1.1,0,0,0,.75-1.35l-2.27-8A1.1,1.1,0,0,0,121.55,252.8Z" transform="translate(-4.21 -30.54)"/>
            <path class="cls-12" d="M112.9,249.72s-1.58,6,1.11,9.57c.93,1.23,8.79-1.23,9.09-2.92s-1.76-7-1.76-7Z" transform="translate(-4.21 -30.54)"/>
            <path class="cls-12" d="M113.5,255.07h0a1.09,1.09,0,0,0-.76,1.34l2.27,8a1.08,1.08,0,0,0,1.34.75h0a1.09,1.09,0,0,0,.76-1.34l-2.27-8A1.08,1.08,0,0,0,113.5,255.07Z" transform="translate(-4.21 -30.54)"/>
          </g>
          <path class="cls-12" d="M123.06,250c0-12.18.89-29.68,5.38-43.9a41.68,41.68,0,0,1,2.37-6.36c.7-1.47-1.08-4.39-3.58-5.63s-5.63-1.08-6.27.11a49.37,49.37,0,0,0-2.83,7.19c-4.24,12.69-6,28.73-5.41,49.15Z" transform="translate(-4.21 -30.54)"/>
          <path class="cls-18" d="M117.48,223.09a1.53,1.53,0,0,1-1.18-.83,3,3,0,0,1-.36-1.71c.09-1.33,1-2.35,1.88-2.29a1.53,1.53,0,0,1,1.19.83,3.09,3.09,0,0,1,.36,1.71,3,3,0,0,1-.6,1.63,1.52,1.52,0,0,1-1.2.66Zm-1.09-2.5a2.6,2.6,0,0,0,.3,1.44,1,1,0,0,0,1.73.12,2.47,2.47,0,0,0,.49-1.39,2.51,2.51,0,0,0-.29-1.44,1.08,1.08,0,0,0-.83-.6h-.05C117.07,218.72,116.47,219.55,116.39,220.59Z" transform="translate(-4.21 -30.54)"/>
          <path class="cls-13" d="M171.63,247.93c0,8.59-.77,20.67-3.16,38.17-3.32,24.28-7.24,48.74-9.16,60.47-.69,4.19-3.59,7.26-7,7.43l-1.84.09c-3.72.18-6.73-3.7-6.46-8.32l4.66-79.34.76-17.34a17.24,17.24,0,0,1,3.64-1.46C159.75,245.72,171.63,244.91,171.63,247.93Z" transform="translate(-4.21 -30.54)"/>
          <path class="cls-13" d="M151.81,248c-.41,8.54-1.32,19.91-3.8,38.07-3.32,24.28-7.24,48.74-9.16,60.47-.69,4.19-3.59,7.26-7,7.43l-1.85.09c-3.71.18-6.73-3.7-6.46-8.32l4.66-79.34L129,245.8a1.82,1.82,0,0,1,1.25-1.64C135,242.64,151.82,244.55,151.81,248Z" transform="translate(-4.21 -30.54)"/>
          <path class="cls-19" d="M148.93,280.48c1.92-14.05,8.92-22.41,9-22.5l-.25-.21c-.08.08-7.14,8.51-9.07,22.66Z" transform="translate(-4.21 -30.54)"/>
          <path class="cls-20" d="M149.31,177.67a8.8,8.8,0,0,0,5.51,3.27l0-1.59-.05-3Z" transform="translate(-4.21 -30.54)"/>
          <path class="cls-14" d="M158.59,157.61s5.87,3.32,3.61,7.87S158.59,157.61,158.59,157.61Z" transform="translate(-4.21 -30.54)"/>
          <path class="cls-14" d="M148.85,177.65s-9.61-1.45-11.53-9.48c-.84-3.56-.11-5.4,1.53-7.24C146.92,151.88,148.85,177.65,148.85,177.65Z" transform="translate(-4.21 -30.54)"/>
          <path class="cls-12" d="M162.11,164.45c-2.19-5.75-8.1-8.84-13.2-6.89s-7.46,8.18-5.27,13.93,8.11,8.84,13.21,6.89S164.31,170.2,162.11,164.45Z" transform="translate(-4.21 -30.54)"/>
          <path class="cls-15" d="M153,166.64a.21.21,0,0,0,.06-.17.2.2,0,0,0-.23-.17,2.17,2.17,0,0,0-1.94,1.81.19.19,0,0,0,.15.24c.1,0,.19,0,.24-.15a3.43,3.43,0,0,1,1.61-1.5A.24.24,0,0,0,153,166.64Z" transform="translate(-4.21 -30.54)"/>
          <path class="cls-15" d="M152.74,169.34c.23.42.66.63,1,.46a.78.78,0,0,0,.13-1.06c-.23-.42-.66-.63-1-.46A.77.77,0,0,0,152.74,169.34Z" transform="translate(-4.21 -30.54)"/>
          <path class="cls-15" d="M160.06,164.34a.14.14,0,0,0,.09-.12A.23.23,0,0,0,160,164a1.4,1.4,0,0,0-1.94.69.27.27,0,0,0,.06.28.16.16,0,0,0,.23,0,2.13,2.13,0,0,1,1.6-.59A.09.09,0,0,0,160.06,164.34Z" transform="translate(-4.21 -30.54)"/>
          <path class="cls-15" d="M158.76,166.76c.05.48.38.83.72.8s.58-.46.53-.93-.37-.83-.72-.8S158.71,166.29,158.76,166.76Z" transform="translate(-4.21 -30.54)"/>
          <path class="cls-7" d="M160.38,170.89a20.43,20.43,0,0,1-6.15,2,3.11,3.11,0,0,0,4.37,1.52C160.45,173.59,160.38,170.89,160.38,170.89Z" transform="translate(-4.21 -30.54)"/>
          <path class="cls-14" d="M161.75,158.79a4,4,0,0,1-4.08,2.84c-2.77.12-3.73-1-3.73-1a3.67,3.67,0,0,1-3,2.6c-2.45.41-3-.49-3-.49a3.48,3.48,0,0,1-1.8,3.29c-2,1,2,2.81-1.49,4.21-2.56,1-3.56-5-5.28-8-2.36-4.17,1.55-8.7,4-7.68,2.08.85,3-1.56,6.76-2.79,4.56-1.48,3.84,2.77,5.63,2C159.91,151.78,163.34,155.09,161.75,158.79Z" transform="translate(-4.21 -30.54)"/>
          <path class="cls-12" d="M143.58,171.58a1.93,1.93,0,1,0-1.4-2.52A2,2,0,0,0,143.58,171.58Z" transform="translate(-4.21 -30.54)"/>
          <path class="cls-14" d="M135.61,163a.2.2,0,0,0,.15-.12,2.42,2.42,0,0,1,2.05-1.48.21.21,0,0,0,.2-.21.22.22,0,0,0-.22-.21,2.84,2.84,0,0,0-2.42,1.74.21.21,0,0,0,.12.27A.17.17,0,0,0,135.61,163Z" transform="translate(-4.21 -30.54)"/>
          <path class="cls-14" d="M138.21,160.45l0,0a.21.21,0,0,0,.09-.28,3.26,3.26,0,0,1-.2-2.19.22.22,0,0,0-.15-.26.21.21,0,0,0-.26.15,3.71,3.71,0,0,0,.24,2.49A.2.2,0,0,0,138.21,160.45Z" transform="translate(-4.21 -30.54)"/>
          <path class="cls-14" d="M155.53,153.44a.19.19,0,0,0,.1-.05,7.39,7.39,0,0,1,5-1.81.22.22,0,0,0,.23-.19.21.21,0,0,0-.19-.23,7.68,7.68,0,0,0-5.3,1.92.21.21,0,0,0,0,.3A.19.19,0,0,0,155.53,153.44Z" transform="translate(-4.21 -30.54)"/>
          <path class="cls-14" d="M145.18,154.32a.18.18,0,0,0,.14-.13,4.6,4.6,0,0,1,1.06-1.57.21.21,0,0,0,0-.3.22.22,0,0,0-.29,0,4.58,4.58,0,0,0-1.17,1.74.21.21,0,0,0,.13.27A.24.24,0,0,0,145.18,154.32Z" transform="translate(-4.21 -30.54)"/>
        </g>
        <path class="cls-16" d="M153.21,241.83a14.9,14.9,0,0,1-1.39-4.19c-2.45-10.37,3.28-1.47,9.15-5.87s5.55-2,7.44-6.91c1.61-4.22,2.61-1,5-5.48.49,7.66.76,16.47,1.34,26.33A58.51,58.51,0,0,0,153.21,241.83Z" transform="translate(-4.21 -30.54)"/>
      </g>
    </g>
  </g>
</svg>
