<svg id="Layer_1" data-name="Layer 1" xmlns="http://www.w3.org/2000/svg" width="94.98" height="30.53" viewBox="0 0 94.98 30.53">
  <defs>
    <style>
      .cls-1 {
        fill: #f9fbfd;
      }

      .cls-2 {
        fill: #fff;
      }

      .cls-3 {
        fill: #fce588;
      }
    </style>
  </defs>
  <g>
    <g>
      <path class="cls-1" d="M54.83,19.21a1.73,1.73,0,0,0-2.38,0A1.65,1.65,0,0,0,52,20.43v0a6.43,6.43,0,0,0-.54-.45,6.29,6.29,0,0,0-1.73-.91,6.35,6.35,0,0,0-2.18-.36,6,6,0,0,0-3.38,1,7,7,0,0,0-2.43,2.71,8.59,8.59,0,0,0-.9,4,8.48,8.48,0,0,0,.9,4,6.87,6.87,0,0,0,2.46,2.71,6.27,6.27,0,0,0,3.46,1,5.4,5.4,0,0,0,1.95-.35,6.41,6.41,0,0,0,1.56-.84,5.65,5.65,0,0,0,.83-.75,1.64,1.64,0,0,0,.48,1.17,1.69,1.69,0,0,0,2.38,0,1.66,1.66,0,0,0,.47-1.2V20.43A1.66,1.66,0,0,0,54.83,19.21ZM51.6,28.79a4.07,4.07,0,0,1-1.43,1.66,4,4,0,0,1-4.23,0,4.07,4.07,0,0,1-1.43-1.66A5.33,5.33,0,0,1,44,26.44a5.44,5.44,0,0,1,.51-2.39,4.14,4.14,0,0,1,1.43-1.66,4,4,0,0,1,4.23,0,4.14,4.14,0,0,1,1.43,1.66,5.44,5.44,0,0,1,.51,2.39A5.33,5.33,0,0,1,51.6,28.79Z" transform="translate(-10.31 -8.38)"/>
      <path class="cls-1" d="M80.83,25.05v7.09a1.66,1.66,0,0,1-.47,1.2,1.69,1.69,0,0,1-2.38,0,1.62,1.62,0,0,1-.47-1.2V25.05a6,6,0,0,0-.22-1.65,2.23,2.23,0,0,0-.81-1.17,2.65,2.65,0,0,0-1.66-.45,3.44,3.44,0,0,0-1.8.45A2.8,2.8,0,0,0,71.9,23.4a3.58,3.58,0,0,0-.37,1.65v7.09a1.66,1.66,0,0,1-.47,1.2,1.7,1.7,0,0,1-2.39,0,1.66,1.66,0,0,1-.47-1.2V25.05A5.63,5.63,0,0,0,68,23.4a2.21,2.21,0,0,0-.8-1.17,2.67,2.67,0,0,0-1.66-.45,3.44,3.44,0,0,0-1.8.45A2.74,2.74,0,0,0,62.6,23.4a3.58,3.58,0,0,0-.38,1.65v7.09a1.66,1.66,0,0,1-.47,1.2,1.69,1.69,0,0,1-2.38,0,1.62,1.62,0,0,1-.47-1.2V20.7a1.62,1.62,0,0,1,.47-1.2,1.69,1.69,0,0,1,2.38,0,1.66,1.66,0,0,1,.47,1.2v.46l.28-.36a5.53,5.53,0,0,1,1.08-1A5.61,5.61,0,0,1,65,19a4.65,4.65,0,0,1,1.69-.29A4.42,4.42,0,0,1,70,19.8a4.94,4.94,0,0,1,1.18,2,6.34,6.34,0,0,1,1-1.28,6.24,6.24,0,0,1,1.67-1.25A4.73,4.73,0,0,1,76,18.74a4.62,4.62,0,0,1,3,.86,4.35,4.35,0,0,1,1.42,2.28A12,12,0,0,1,80.83,25.05Z" transform="translate(-10.31 -8.38)"/>
      <path class="cls-1" d="M97.61,19.21a1.58,1.58,0,0,0-1.19-.47,1.61,1.61,0,0,0-1.19.48,1.68,1.68,0,0,0-.47,1.21v0a6.43,6.43,0,0,0-.54-.45,6.59,6.59,0,0,0-1.73-.91,6.37,6.37,0,0,0-2.19-.36,6.09,6.09,0,0,0-3.38,1,7.08,7.08,0,0,0-2.42,2.71,8.59,8.59,0,0,0-.9,4,8.48,8.48,0,0,0,.9,4A6.92,6.92,0,0,0,87,33.12a6.32,6.32,0,0,0,3.46,1,5.42,5.42,0,0,0,2-.35,6.41,6.41,0,0,0,1.56-.84,5.65,5.65,0,0,0,.83-.75,1.63,1.63,0,0,0,.47,1.17,1.69,1.69,0,0,0,2.38,0,1.62,1.62,0,0,0,.47-1.2V20.43A1.62,1.62,0,0,0,97.61,19.21Zm-3.22,9.58A4.07,4.07,0,0,1,93,30.45a4,4,0,0,1-4.24,0,4,4,0,0,1-1.42-1.66,5.33,5.33,0,0,1-.51-2.35,5.44,5.44,0,0,1,.51-2.39,4.11,4.11,0,0,1,1.42-1.66,4,4,0,0,1,4.24,0,4.14,4.14,0,0,1,1.43,1.66,5.44,5.44,0,0,1,.51,2.39A5.33,5.33,0,0,1,94.39,28.79Z" transform="translate(-10.31 -8.38)"/>
      <path class="cls-1" d="M105.28,32.14a1.67,1.67,0,0,1-.48,1.21,1.63,1.63,0,0,1-1.2.48,1.58,1.58,0,0,1-1.17-.48,1.7,1.7,0,0,1-.47-1.21V15a1.66,1.66,0,0,1,1.69-1.69,1.57,1.57,0,0,1,1.18.48,1.71,1.71,0,0,1,.45,1.21Z" transform="translate(-10.31 -8.38)"/>
    </g>
    <g>
      <g>
        <path class="cls-1" d="M30.58,36.31a12.61,12.61,0,1,1-8.39-22.62A3.86,3.86,0,0,1,21,15.43a4.73,4.73,0,0,1-2.11.8A6.73,6.73,0,0,0,13.25,23a6.12,6.12,0,0,0,1.91,4.56,6.33,6.33,0,0,0,.56.47.3.3,0,0,1,0,.1,3.13,3.13,0,0,0,.16.52l.25.62.9,2.28.46,1.14.08.21a3.45,3.45,0,0,0,1.54,1.74l3.44,1.89a6.29,6.29,0,0,0,4.46.6Z" transform="translate(-10.31 -8.38)"/>
        <path class="cls-1" d="M35.44,24.73l-1.78-1.2a.59.59,0,0,0-.32-.09h-.73c0-.14,0-.28,0-.42A6.74,6.74,0,0,0,27,16.23a4.69,4.69,0,0,1-2.1-.8,3.81,3.81,0,0,1-1.19-1.73A12.6,12.6,0,0,1,35.44,24.73Z" transform="translate(-10.31 -8.38)"/>
        <path class="cls-1" d="M32.63,23c0,.14,0,.28,0,.42h-.84a4.63,4.63,0,0,0-.29-.64,5.57,5.57,0,0,0-4.65-5.43,5.8,5.8,0,0,1-2.61-1,4.5,4.5,0,0,1-1.28-1.55,4.64,4.64,0,0,1-1.29,1.55,5.8,5.8,0,0,1-2.61,1A5.59,5.59,0,0,0,14.39,23a5,5,0,0,0,1.28,3.44v1a3.26,3.26,0,0,0,.06.62,6.33,6.33,0,0,1-.56-.47A6.12,6.12,0,0,1,13.25,23a6.73,6.73,0,0,1,5.64-6.79,4.73,4.73,0,0,0,2.11-.8,3.86,3.86,0,0,0,1.19-1.74,2.79,2.79,0,0,0,.17-.83,2.28,2.28,0,0,1,.58-4.48.57.57,0,0,1,.57.57.58.58,0,0,1-.57.57,1.14,1.14,0,1,0,1.14,1.14h0a.57.57,0,0,1,.57-.57.59.59,0,0,1,.57.58,2.27,2.27,0,0,1-1.71,2.2,3,3,0,0,0,.18.84,3.81,3.81,0,0,0,1.19,1.73,4.69,4.69,0,0,0,2.1.8A6.74,6.74,0,0,1,32.63,23Z" transform="translate(-10.31 -8.38)"/>
      </g>
      <path class="cls-2" d="M35.54,26.29a12.57,12.57,0,0,1-3.25,8.45h0L26.76,36a5.12,5.12,0,0,1-3.64-.49l-3.44-1.89a2.24,2.24,0,0,1-.93-.95,2,2,0,0,1-.1-.21l-.37-.93-.91-2.28-.41-1a2.3,2.3,0,0,1-.16-.82V25.68a1.4,1.4,0,0,1,1.4-1.42,1.45,1.45,0,0,1,1.45,1.43h0a6.3,6.3,0,0,0,.49,2.45,7,7,0,0,0,.63,1.14,6.36,6.36,0,0,0,2.93,2.28A6.28,6.28,0,0,0,31,29.46a6.78,6.78,0,0,0,.59-1c.05-.09.09-.18.13-.27a.56.56,0,0,0-.29-.75.59.59,0,0,0-.23,0H27.06a2.28,2.28,0,0,1-2.27-2.28.56.56,0,0,1,.57-.57h7.81l2.37,1.58Z" transform="translate(-10.31 -8.38)"/>
      <path class="cls-3" d="M27.06,28.55h3.13a6.07,6.07,0,0,1-.59.73,5.13,5.13,0,0,1-6.53.67,4.81,4.81,0,0,1-.81-.67,5.14,5.14,0,0,1,3.68-8.72,5.16,5.16,0,0,1,4.59,2.86H25.36a1.71,1.71,0,0,0-1.71,1.71,3.44,3.44,0,0,0,1.8,3A3.37,3.37,0,0,0,27.06,28.55Z" transform="translate(-10.31 -8.38)"/>
    </g>
  </g>
</svg>
