<svg id="Layer_1" data-name="Layer 1" xmlns="http://www.w3.org/2000/svg" width="104.62" height="25.2" viewBox="0 0 104.62 25.2">
  <defs>
    <style>
      .cls-1 {
        fill: #f9fbfd;
      }
    </style>
  </defs>
  <g>
    <g>
      <path class="cls-1" d="M53.81,18.43a2,2,0,0,0-1.44-.57,1.91,1.91,0,0,0-1.43.59,2,2,0,0,0-.57,1.45V20a7.22,7.22,0,0,0-.65-.55,7.8,7.8,0,0,0-2.09-1.1A7.7,7.7,0,0,0,45,17.86a7.34,7.34,0,0,0-4.07,1.19A8.43,8.43,0,0,0,38,22.32a10.24,10.24,0,0,0-1.09,4.83A10.16,10.16,0,0,0,38,31.94a8.35,8.35,0,0,0,3,3.27,7.66,7.66,0,0,0,4.18,1.19A6.45,6.45,0,0,0,47.48,36a8.07,8.07,0,0,0,1.89-1,6.88,6.88,0,0,0,1-.9,2,2,0,0,0,.57,1.42,1.9,1.9,0,0,0,1.43.58,1.92,1.92,0,0,0,1.44-.58A2,2,0,0,0,54.38,34V19.9A2,2,0,0,0,53.81,18.43ZM49.92,30a5,5,0,0,1-1.72,2,4.51,4.51,0,0,1-2.57.73A4.45,4.45,0,0,1,43.09,32a5,5,0,0,1-1.72-2,6.39,6.39,0,0,1-.62-2.83,6.55,6.55,0,0,1,.62-2.88,5,5,0,0,1,1.72-2,4.45,4.45,0,0,1,2.54-.73,4.51,4.51,0,0,1,2.57.73,5,5,0,0,1,1.72,2,6.55,6.55,0,0,1,.62,2.88A6.39,6.39,0,0,1,49.92,30Z" transform="translate(-10.03 -11.35)"/>
      <path class="cls-1" d="M85.16,25.48V34a2,2,0,0,1-.56,1.45,1.92,1.92,0,0,1-1.44.58,1.88,1.88,0,0,1-1.43-.58A2,2,0,0,1,81.16,34V25.48a6.79,6.79,0,0,0-.27-2,2.74,2.74,0,0,0-1-1.42,3.28,3.28,0,0,0-2-.53,4.23,4.23,0,0,0-2.17.53,3.47,3.47,0,0,0-1.35,1.42,4.32,4.32,0,0,0-.45,2V34a2,2,0,0,1-.57,1.45,1.92,1.92,0,0,1-1.44.58,1.88,1.88,0,0,1-1.43-.58A2,2,0,0,1,69.94,34V25.48a6.79,6.79,0,0,0-.27-2,2.74,2.74,0,0,0-1-1.42,3.26,3.26,0,0,0-2-.53,4.23,4.23,0,0,0-2.17.53,3.47,3.47,0,0,0-1.35,1.42,4.32,4.32,0,0,0-.46,2V34a2,2,0,0,1-.56,1.45,1.92,1.92,0,0,1-1.44.58,1.88,1.88,0,0,1-1.43-.58A2,2,0,0,1,58.72,34V20.23a2,2,0,0,1,.57-1.45,1.88,1.88,0,0,1,1.43-.58,1.92,1.92,0,0,1,1.44.58,2,2,0,0,1,.56,1.45v.55l.34-.43a7.28,7.28,0,0,1,1.3-1.22,7.13,7.13,0,0,1,1.7-.92,5.91,5.91,0,0,1,2-.35A5.33,5.33,0,0,1,72,19.15a6,6,0,0,1,1.43,2.38A7.67,7.67,0,0,1,74.65,20a7.39,7.39,0,0,1,2-1.5A6.52,6.52,0,0,1,83,18.9a5.35,5.35,0,0,1,1.72,2.75A14.68,14.68,0,0,1,85.16,25.48Z" transform="translate(-10.03 -11.35)"/>
      <path class="cls-1" d="M105.4,18.43a2,2,0,0,0-1.44-.57,1.92,1.92,0,0,0-1.43.59A2,2,0,0,0,102,19.9V20a6.05,6.05,0,0,0-.65-.55,7.8,7.8,0,0,0-2.09-1.1,7.68,7.68,0,0,0-2.63-.44,7.38,7.38,0,0,0-4.08,1.19,8.43,8.43,0,0,0-2.92,3.27,10.36,10.36,0,0,0-1.09,4.83,10.28,10.28,0,0,0,1.09,4.79,8.35,8.35,0,0,0,3,3.27,7.66,7.66,0,0,0,4.18,1.19A6.42,6.42,0,0,0,99.07,36,7.69,7.69,0,0,0,101,35a6.93,6.93,0,0,0,1-.9,2,2,0,0,0,.57,1.42,2.07,2.07,0,0,0,2.87,0A2,2,0,0,0,106,34V19.9A2,2,0,0,0,105.4,18.43ZM101.51,30a4.9,4.9,0,0,1-1.72,2,4.84,4.84,0,0,1-5.11,0A5,5,0,0,1,93,30a6.39,6.39,0,0,1-.62-2.83A6.55,6.55,0,0,1,93,24.27a5,5,0,0,1,1.72-2,4.84,4.84,0,0,1,5.11,0,4.94,4.94,0,0,1,1.72,2,6.55,6.55,0,0,1,.62,2.88A6.39,6.39,0,0,1,101.51,30Z" transform="translate(-10.03 -11.35)"/>
      <path class="cls-1" d="M114.65,34a2,2,0,0,1-2,2,1.88,1.88,0,0,1-1.4-.58,2,2,0,0,1-.57-1.45V13.39a2,2,0,0,1,2-2,1.87,1.87,0,0,1,1.42.59,2,2,0,0,1,.55,1.45Z" transform="translate(-10.03 -11.35)"/>
    </g>
    <g>
      <path class="cls-1" d="M28.92,28a9.5,9.5,0,0,1-18.7,1.28V28a1.45,1.45,0,0,1,1.45-1.48A1.48,1.48,0,0,1,13.16,28h0A6.49,6.49,0,0,0,25.6,30.54a.59.59,0,0,0-.31-.77.59.59,0,0,0-.23-.05H20.83a2.36,2.36,0,0,1-2.36-2.35.58.58,0,0,1,.59-.59l8.07,0Z" transform="translate(-10.03 -11.35)"/>
      <path class="cls-1" d="M29,26.56l-1.32-.87a.56.56,0,0,0-.33-.1H25.68A6.42,6.42,0,0,0,23,22.44a3.79,3.79,0,0,0,.39-.81,1.33,1.33,0,0,0-1.27-1.76,1.3,1.3,0,0,0-.93.38.76.76,0,0,1-.4.2h-.11a.58.58,0,0,1-.36-.12.73.73,0,0,1-.3-.63.7.7,0,0,1,.34-.54l.14-.07a1.32,1.32,0,0,0,.93-1.34A9.51,9.51,0,0,1,29,26.56Z" transform="translate(-10.03 -11.35)"/>
      <path class="cls-1" d="M16.36,22.38A6.53,6.53,0,0,0,13.46,26a2.7,2.7,0,0,0-1.8-.69,2.61,2.61,0,0,0-1.63.58A9.53,9.53,0,0,1,16.63,18a3.84,3.84,0,0,0-.8,2A3.9,3.9,0,0,0,16.36,22.38Z" transform="translate(-10.03 -11.35)"/>
      <path class="cls-1" d="M20.83,30.91h3.24A5.31,5.31,0,0,1,15.23,25a5.39,5.39,0,0,1,1.89-1.73l.05.05a3.82,3.82,0,0,0,2.53.95,3.9,3.9,0,0,0,2.56-.95,5.27,5.27,0,0,1,2.13,2.25H19.05a1.77,1.77,0,0,0-1.76,1.77A3.53,3.53,0,0,0,20.83,30.91Z" transform="translate(-10.03 -11.35)"/>
      <path class="cls-1" d="M21.07,21.66a2.08,2.08,0,0,0,1-.53.1.1,0,0,1,.17.1A2.71,2.71,0,0,1,20.33,23,2.58,2.58,0,0,1,18,22.43a2.68,2.68,0,0,1,2.17-4.7.1.1,0,0,1,0,.2,1.65,1.65,0,0,0-.41.18,1.93,1.93,0,0,0-.17,3.19A1.79,1.79,0,0,0,21.07,21.66Z" transform="translate(-10.03 -11.35)"/>
    </g>
  </g>
</svg>
