<svg id="Layer_1" data-name="Layer 1" xmlns="http://www.w3.org/2000/svg" width="105.92" height="26.43" viewBox="0 0 105.92 26.43">
  <defs>
    <style>
      .cls-1 {
        fill: #56be91;
      }

      .cls-2 {
        fill: #fff;
      }

      .cls-3 {
        fill: #fce588;
      }
    </style>
  </defs>
  <g>
    <g>
      <path class="cls-1" d="M54.46,17.81A2,2,0,0,0,53,17.25a1.9,1.9,0,0,0-1.43.58A2,2,0,0,0,51,19.28v0a6.05,6.05,0,0,0-.65-.55,8.1,8.1,0,0,0-2.09-1.1,7.7,7.7,0,0,0-2.64-.43,7.33,7.33,0,0,0-4.07,1.18,8.43,8.43,0,0,0-2.92,3.27,10.39,10.39,0,0,0-1.09,4.83,10.28,10.28,0,0,0,1.09,4.79,8.35,8.35,0,0,0,3,3.27,7.66,7.66,0,0,0,4.18,1.19,6.45,6.45,0,0,0,2.35-.42,7.88,7.88,0,0,0,1.89-1,6.85,6.85,0,0,0,1-.89,2,2,0,0,0,.57,1.41,1.91,1.91,0,0,0,1.43.59,1.93,1.93,0,0,0,1.44-.59A2,2,0,0,0,55,33.41V19.28A2,2,0,0,0,54.46,17.81ZM50.57,29.37a5,5,0,0,1-1.72,2,4.78,4.78,0,0,1-5.11,0,5,5,0,0,1-1.72-2,6.88,6.88,0,0,1,0-5.71,5,5,0,0,1,1.72-2,4.84,4.84,0,0,1,5.11,0,5,5,0,0,1,1.72,2,6.88,6.88,0,0,1,0,5.71Z" transform="translate(-9.38 -10.73)"/>
      <path class="cls-1" d="M85.82,24.86v8.55a2,2,0,0,1-.57,1.45,1.93,1.93,0,0,1-1.44.59,1.89,1.89,0,0,1-1.43-.59,2,2,0,0,1-.57-1.45V24.86a6.79,6.79,0,0,0-.27-2,2.74,2.74,0,0,0-1-1.42,3.28,3.28,0,0,0-2-.53,4.23,4.23,0,0,0-2.17.53,3.47,3.47,0,0,0-1.35,1.42,4.32,4.32,0,0,0-.45,2v8.55A2,2,0,0,1,74,34.86a1.93,1.93,0,0,1-1.44.59,1.89,1.89,0,0,1-1.43-.59,2,2,0,0,1-.57-1.45V24.86a6.79,6.79,0,0,0-.27-2,2.74,2.74,0,0,0-1-1.42,3.26,3.26,0,0,0-2-.53,4.23,4.23,0,0,0-2.17.53,3.47,3.47,0,0,0-1.35,1.42,4.32,4.32,0,0,0-.45,2v8.55a2,2,0,0,1-.57,1.45,1.93,1.93,0,0,1-1.44.59,1.89,1.89,0,0,1-1.43-.59,2,2,0,0,1-.57-1.45V19.62a2,2,0,0,1,.57-1.46,1.92,1.92,0,0,1,1.43-.58,2,2,0,0,1,1.44.58,2,2,0,0,1,.57,1.46v.55c.1-.15.21-.29.33-.44A6.9,6.9,0,0,1,65,18.52a6.69,6.69,0,0,1,1.71-.92,5.59,5.59,0,0,1,2-.35,5.31,5.31,0,0,1,3.94,1.28,6.06,6.06,0,0,1,1.43,2.39,7.4,7.4,0,0,1,1.18-1.55,7.62,7.62,0,0,1,2-1.51,6.59,6.59,0,0,1,6.31.42A5.27,5.27,0,0,1,85.35,21,14.58,14.58,0,0,1,85.82,24.86Z" transform="translate(-9.38 -10.73)"/>
      <path class="cls-1" d="M106.05,17.81a2,2,0,0,0-1.43-.56,1.92,1.92,0,0,0-1.44.58,2,2,0,0,0-.57,1.45v0a6.05,6.05,0,0,0-.65-.55,7.94,7.94,0,0,0-2.09-1.1,7.68,7.68,0,0,0-2.63-.43,7.37,7.37,0,0,0-4.08,1.18,8.43,8.43,0,0,0-2.92,3.27,10.39,10.39,0,0,0-1.09,4.83,10.28,10.28,0,0,0,1.09,4.79,8.3,8.3,0,0,0,3,3.27,7.6,7.6,0,0,0,4.17,1.19,6.42,6.42,0,0,0,2.35-.42,7.69,7.69,0,0,0,1.89-1,5.93,5.93,0,0,0,1-.9,2,2,0,0,0,.57,1.42,1.93,1.93,0,0,0,1.44.59,1.91,1.91,0,0,0,1.43-.59,2,2,0,0,0,.57-1.45V19.28A2,2,0,0,0,106.05,17.81Zm-3.89,11.56a4.87,4.87,0,0,1-1.72,2,4.78,4.78,0,0,1-5.11,0,5,5,0,0,1-1.72-2,7,7,0,0,1,0-5.71,5.05,5.05,0,0,1,1.72-2,4.84,4.84,0,0,1,5.11,0,4.9,4.9,0,0,1,1.72,2,6.88,6.88,0,0,1,0,5.71Z" transform="translate(-9.38 -10.73)"/>
      <path class="cls-1" d="M115.3,33.41a2,2,0,0,1-.58,1.45,2,2,0,0,1-1.46.59,1.89,1.89,0,0,1-1.4-.59,2,2,0,0,1-.57-1.45V12.77a2,2,0,0,1,2-2,1.87,1.87,0,0,1,1.42.59,2,2,0,0,1,.55,1.45Z" transform="translate(-9.38 -10.73)"/>
    </g>
    <g>
      <path class="cls-2" d="M29.57,27.34a9.5,9.5,0,0,1-18.7,1.28V27.37a1.46,1.46,0,0,1,1.45-1.48,1.5,1.5,0,0,1,1.5,1.48h0a6.48,6.48,0,0,0,12.43,2.56.6.6,0,0,0-.54-.83H21.48a2.35,2.35,0,0,1-2.36-2.35.59.59,0,0,1,.59-.59l8.07,0Z" transform="translate(-9.38 -10.73)"/>
      <path class="cls-1" d="M29.6,25.94l-1.32-.87A.61.61,0,0,0,28,25H26.33a6.49,6.49,0,0,0-12.22.42,2.64,2.64,0,0,0-1.8-.68,2.56,2.56,0,0,0-1.62.57,9.5,9.5,0,0,1,18.91.65Z" transform="translate(-9.38 -10.73)"/>
      <path class="cls-3" d="M21.48,30.29h3.24a5.3,5.3,0,1,1,.33-5.3H19.7a1.78,1.78,0,0,0-1.76,1.77A3.53,3.53,0,0,0,21.48,30.29Z" transform="translate(-9.38 -10.73)"/>
      <path class="cls-1" d="M29.6,25.94l-1.32-.87A.61.61,0,0,0,28,25H26.33a6.49,6.49,0,0,0-12.22.42,2.64,2.64,0,0,0-1.8-.68,2.56,2.56,0,0,0-1.62.57,8.72,8.72,0,0,0-.07,1.14,9.25,9.25,0,0,0,.25,2.19V27.37a1.46,1.46,0,0,1,1.45-1.48,1.5,1.5,0,0,1,1.5,1.48h0a6.48,6.48,0,0,0,12.43,2.56.6.6,0,0,0-.54-.83H21.48a2.35,2.35,0,0,1-2.36-2.35.59.59,0,0,1,.59-.59l8.07,0,1.79,1.19a9.1,9.1,0,0,0,0-.91C29.61,26.27,29.61,26.11,29.6,25.94Zm-9.9-1a1.78,1.78,0,0,0-1.76,1.77,3.53,3.53,0,0,0,3.54,3.53h3.24a5.3,5.3,0,1,1,.33-5.3Z" transform="translate(-9.38 -10.73)"/>
      <path class="cls-1" d="M20.12,16.94a9.5,9.5,0,1,1-9.5,9.49,9.49,9.49,0,0,1,9.5-9.49m0-1.24A10.74,10.74,0,1,0,30.85,26.43,10.75,10.75,0,0,0,20.12,15.7Z" transform="translate(-9.38 -10.73)"/>
      <g>
        <path class="cls-2" d="M21.72,21a1.93,1.93,0,0,0,1-.53.1.1,0,0,1,.17.11A2.72,2.72,0,0,1,21,22.37a2.58,2.58,0,0,1-2.34-.56,2.69,2.69,0,0,1,2.17-4.7.1.1,0,0,1,0,.2,2.13,2.13,0,0,0-.41.18,1.93,1.93,0,0,0-.17,3.19A1.76,1.76,0,0,0,21.72,21Z" transform="translate(-9.38 -10.73)"/>
        <path class="cls-1" d="M20.37,17.08a3.25,3.25,0,0,1,.44,0,.1.1,0,0,1,0,.2,2.13,2.13,0,0,0-.41.18,1.93,1.93,0,0,0-.17,3.19,1.79,1.79,0,0,0,1.13.4,1.34,1.34,0,0,0,.35,0,1.93,1.93,0,0,0,1-.53.11.11,0,0,1,.07,0,.1.1,0,0,1,.1.14A2.72,2.72,0,0,1,21,22.37a2.27,2.27,0,0,1-.63.08,2.56,2.56,0,0,1-1.71-.64,2.68,2.68,0,0,1,1.73-4.73m0-1.24h0a3.86,3.86,0,0,0-2,.56,3.93,3.93,0,0,0-.54,6.33,3.78,3.78,0,0,0,2.53,1,3.65,3.65,0,0,0,.93-.12A4,4,0,0,0,24.08,21a1.32,1.32,0,0,0-.18-1.2,1.35,1.35,0,0,0-1.09-.56,1.3,1.3,0,0,0-.93.38.76.76,0,0,1-.4.2l-.11,0a.59.59,0,0,1-.36-.13.71.71,0,0,1-.3-.62.7.7,0,0,1,.34-.55.35.35,0,0,1,.14-.06,1.32,1.32,0,0,0,.93-1.37A1.34,1.34,0,0,0,21,15.89a4.6,4.6,0,0,0-.64-.05Z" transform="translate(-9.38 -10.73)"/>
      </g>
    </g>
  </g>
</svg>
