<svg id="Layer_1" data-name="Layer 1" xmlns="http://www.w3.org/2000/svg" width="107.15" height="27.66" viewBox="0 0 107.15 27.66">
  <defs>
    <style>
      .cls-1 {
        fill: #56be91;
      }

      .cls-2 {
        fill: #202937;
      }

      .cls-3 {
        fill: #fff;
      }

      .cls-4 {
        fill: #1ab580;
      }

      .cls-5 {
        fill: #fce588;
      }
    </style>
  </defs>
  <g>
    <g>
      <g>
        <path class="cls-1" d="M53.84,18.43a2.07,2.07,0,0,0-2.87,0,2,2,0,0,0-.57,1.45V20a6.05,6.05,0,0,0-.65-.55A7.86,7.86,0,0,0,45,17.86,7.4,7.4,0,0,0,41,19.05,8.51,8.51,0,0,0,38,22.32,10.36,10.36,0,0,0,37,27.15,10.28,10.28,0,0,0,38,31.94a8.37,8.37,0,0,0,3,3.27,7.63,7.63,0,0,0,4.17,1.19A6.51,6.51,0,0,0,47.52,36a7.8,7.8,0,0,0,1.88-1,6.93,6.93,0,0,0,1-.9A2,2,0,0,0,51,35.48a1.92,1.92,0,0,0,1.44.58,1.9,1.9,0,0,0,1.43-.58A2,2,0,0,0,54.41,34V19.9A2,2,0,0,0,53.84,18.43ZM50,30a4.9,4.9,0,0,1-1.72,2,4.84,4.84,0,0,1-5.11,0,5.05,5.05,0,0,1-1.72-2,6.39,6.39,0,0,1-.61-2.83,6.54,6.54,0,0,1,.61-2.88,5.09,5.09,0,0,1,1.72-2,4.84,4.84,0,0,1,5.11,0,4.94,4.94,0,0,1,1.72,2,6.55,6.55,0,0,1,.62,2.88A6.39,6.39,0,0,1,50,30Z" transform="translate(-8.77 -10.12)"/>
        <path class="cls-2" d="M52.41,17.86a1.93,1.93,0,0,1,1.43.57,2,2,0,0,1,.57,1.47V34a2,2,0,0,1-.57,1.45,1.9,1.9,0,0,1-1.43.58A1.92,1.92,0,0,1,51,35.48a2,2,0,0,1-.57-1.42,6.93,6.93,0,0,1-1,.9,7.8,7.8,0,0,1-1.88,1,6.51,6.51,0,0,1-2.36.42A7.63,7.63,0,0,1,41,35.21a8.37,8.37,0,0,1-3-3.27A10.28,10.28,0,0,1,37,27.15,10.36,10.36,0,0,1,38,22.32,8.51,8.51,0,0,1,41,19.05,7.4,7.4,0,0,1,45,17.86a7.86,7.86,0,0,1,4.72,1.54,6.05,6.05,0,0,1,.65.55V19.9A2,2,0,0,1,51,18.45a1.93,1.93,0,0,1,1.44-.59M45.66,32.72A4.51,4.51,0,0,0,48.23,32,4.9,4.9,0,0,0,50,30a6.39,6.39,0,0,0,.62-2.83A6.55,6.55,0,0,0,50,24.27a4.94,4.94,0,0,0-1.72-2,4.84,4.84,0,0,0-5.11,0,5.09,5.09,0,0,0-1.72,2,6.54,6.54,0,0,0-.61,2.88A6.39,6.39,0,0,0,41.4,30a5.05,5.05,0,0,0,1.72,2,4.48,4.48,0,0,0,2.54.73m6.75-16.09a3.15,3.15,0,0,0-2.32,1,3.27,3.27,0,0,0-.3.35,9.61,9.61,0,0,0-1.71-.8,8.83,8.83,0,0,0-3-.51A8.67,8.67,0,0,0,40.28,18a9.77,9.77,0,0,0-3.34,3.74,11.52,11.52,0,0,0-1.23,5.4,11.44,11.44,0,0,0,1.23,5.36,9.52,9.52,0,0,0,3.39,3.74,8.81,8.81,0,0,0,4.83,1.38,7.86,7.86,0,0,0,2.8-.5,9.58,9.58,0,0,0,1.94-1,2,2,0,0,0,.19.22,3.28,3.28,0,0,0,4.64,0A3.25,3.25,0,0,0,55.64,34V19.9a3.26,3.26,0,0,0-.92-2.34,3.19,3.19,0,0,0-2.31-.93ZM45.66,31.49A3.19,3.19,0,0,1,43.81,31a3.66,3.66,0,0,1-1.3-1.52A5.27,5.27,0,0,1,42,27.15a5.44,5.44,0,0,1,.49-2.34,3.7,3.7,0,0,1,1.3-1.51,3.19,3.19,0,0,1,1.85-.53,3.26,3.26,0,0,1,1.89.53,3.74,3.74,0,0,1,1.3,1.52,5.36,5.36,0,0,1,.49,2.33,5.14,5.14,0,0,1-.5,2.29A3.64,3.64,0,0,1,47.55,31a3.26,3.26,0,0,1-1.89.53Z" transform="translate(-8.77 -10.12)"/>
      </g>
      <g>
        <path class="cls-1" d="M85.2,25.48V34a2,2,0,0,1-.57,1.45,2.07,2.07,0,0,1-2.87,0A2,2,0,0,1,81.19,34V25.48a7.16,7.16,0,0,0-.26-2,2.8,2.8,0,0,0-1-1.42,3.32,3.32,0,0,0-2-.53,4.25,4.25,0,0,0-2.17.53,3.47,3.47,0,0,0-1.35,1.42,4.32,4.32,0,0,0-.45,2V34a2,2,0,0,1-.57,1.45,2.07,2.07,0,0,1-2.87,0A2,2,0,0,1,70,34V25.48a6.79,6.79,0,0,0-.27-2,2.72,2.72,0,0,0-1-1.42,3.32,3.32,0,0,0-2-.53,4.25,4.25,0,0,0-2.17.53,3.47,3.47,0,0,0-1.35,1.42,4.32,4.32,0,0,0-.45,2V34a2,2,0,0,1-.57,1.45,2.07,2.07,0,0,1-2.87,0A2,2,0,0,1,58.75,34V20.23a2,2,0,0,1,.57-1.45,2.07,2.07,0,0,1,2.87,0,2,2,0,0,1,.57,1.45v.55l.33-.43a7.35,7.35,0,0,1,1.31-1.22,6.94,6.94,0,0,1,1.7-.92,5.81,5.81,0,0,1,2-.35,5.29,5.29,0,0,1,3.94,1.29,5.91,5.91,0,0,1,1.43,2.38A8.06,8.06,0,0,1,74.68,20a7.54,7.54,0,0,1,2-1.5,5.7,5.7,0,0,1,2.66-.62,5.59,5.59,0,0,1,3.65,1,5.22,5.22,0,0,1,1.72,2.75A14.66,14.66,0,0,1,85.2,25.48Z" transform="translate(-8.77 -10.12)"/>
        <path class="cls-2" d="M79.36,17.86a5.59,5.59,0,0,1,3.65,1,5.22,5.22,0,0,1,1.72,2.75,14.66,14.66,0,0,1,.47,3.83V34a2,2,0,0,1-.57,1.45,2.07,2.07,0,0,1-2.87,0A2,2,0,0,1,81.19,34V25.48a7.16,7.16,0,0,0-.26-2,2.8,2.8,0,0,0-1-1.42,3.32,3.32,0,0,0-2-.53,4.25,4.25,0,0,0-2.17.53,3.47,3.47,0,0,0-1.35,1.42,4.32,4.32,0,0,0-.45,2V34a2,2,0,0,1-.57,1.45,2.07,2.07,0,0,1-2.87,0A2,2,0,0,1,70,34V25.48a6.79,6.79,0,0,0-.27-2,2.72,2.72,0,0,0-1-1.42,3.32,3.32,0,0,0-2-.53,4.25,4.25,0,0,0-2.17.53,3.47,3.47,0,0,0-1.35,1.42,4.32,4.32,0,0,0-.45,2V34a2,2,0,0,1-.57,1.45,2.07,2.07,0,0,1-2.87,0A2,2,0,0,1,58.75,34V20.23a2,2,0,0,1,.57-1.45,2.07,2.07,0,0,1,2.87,0,2,2,0,0,1,.57,1.45v.55l.33-.43a7.35,7.35,0,0,1,1.31-1.22,6.94,6.94,0,0,1,1.7-.92,5.81,5.81,0,0,1,2-.35,5.29,5.29,0,0,1,3.94,1.29,5.91,5.91,0,0,1,1.43,2.38A8.06,8.06,0,0,1,74.68,20a7.54,7.54,0,0,1,2-1.5,5.7,5.7,0,0,1,2.66-.62m0-1.23a6.93,6.93,0,0,0-3.23.76,8.69,8.69,0,0,0-2.35,1.75l-.06.07a7.6,7.6,0,0,0-.77-.93,6.53,6.53,0,0,0-4.82-1.65,6.9,6.9,0,0,0-2.47.43,8.21,8.21,0,0,0-2,1.08l-.25.19a4.23,4.23,0,0,0-.33-.41,3.18,3.18,0,0,0-2.32-1,3.15,3.15,0,0,0-2.32,1,3.26,3.26,0,0,0-.92,2.31V34a3.26,3.26,0,0,0,.92,2.31,3.17,3.17,0,0,0,2.32,1,3.2,3.2,0,0,0,2.32-1A3.29,3.29,0,0,0,64,34V25.48a3.11,3.11,0,0,1,.32-1.43,2.22,2.22,0,0,1,.88-.92,3,3,0,0,1,1.54-.36,2.09,2.09,0,0,1,1.26.28,1.46,1.46,0,0,1,.53.8,5.4,5.4,0,0,1,.22,1.63V34a3.26,3.26,0,0,0,.92,2.31,3.27,3.27,0,0,0,4.63,0A3.22,3.22,0,0,0,75.21,34V25.48a3.11,3.11,0,0,1,.32-1.43,2.22,2.22,0,0,1,.88-.92A3,3,0,0,1,78,22.77a2.21,2.21,0,0,1,1.26.28,1.53,1.53,0,0,1,.54.8A5.76,5.76,0,0,1,80,25.48V34a3.24,3.24,0,0,0,.92,2.31,3.15,3.15,0,0,0,2.32,1,3.2,3.2,0,0,0,2.32-1A3.29,3.29,0,0,0,86.43,34V25.48a15.83,15.83,0,0,0-.51-4.15A6.49,6.49,0,0,0,83.8,18a6.79,6.79,0,0,0-4.44-1.32Z" transform="translate(-8.77 -10.12)"/>
      </g>
      <g>
        <path class="cls-1" d="M105.44,18.43a2,2,0,0,0-1.44-.57,1.93,1.93,0,0,0-1.44.59A2,2,0,0,0,102,19.9V20a7.39,7.39,0,0,0-.66-.55,7.86,7.86,0,0,0-4.72-1.54,7.34,7.34,0,0,0-4.07,1.19,8.46,8.46,0,0,0-2.93,3.27,10.36,10.36,0,0,0-1.08,4.83,10.28,10.28,0,0,0,1.08,4.79,8.37,8.37,0,0,0,3,3.27,7.65,7.65,0,0,0,4.17,1.19A6.51,6.51,0,0,0,99.11,36,7.8,7.8,0,0,0,101,35a7.64,7.64,0,0,0,1-.9,2,2,0,0,0,.56,1.42,2.08,2.08,0,0,0,2.88,0A2,2,0,0,0,106,34V19.9A2,2,0,0,0,105.44,18.43ZM101.54,30a5,5,0,0,1-1.71,2,4.56,4.56,0,0,1-2.58.73A4.44,4.44,0,0,1,94.72,32,4.9,4.9,0,0,1,93,30a6.26,6.26,0,0,1-.62-2.83A6.41,6.41,0,0,1,93,24.27a4.94,4.94,0,0,1,1.72-2,4.44,4.44,0,0,1,2.53-.73,4.56,4.56,0,0,1,2.58.73,5,5,0,0,1,1.71,2,6.41,6.41,0,0,1,.62,2.88A6.26,6.26,0,0,1,101.54,30Z" transform="translate(-8.77 -10.12)"/>
        <path class="cls-2" d="M104,17.86a2,2,0,0,1,1.44.57A2,2,0,0,1,106,19.9V34a2,2,0,0,1-.56,1.45,2.08,2.08,0,0,1-2.88,0,2,2,0,0,1-.56-1.42,7.64,7.64,0,0,1-1,.9,7.8,7.8,0,0,1-1.88,1,6.51,6.51,0,0,1-2.36.42,7.65,7.65,0,0,1-4.17-1.19,8.37,8.37,0,0,1-3-3.27,10.28,10.28,0,0,1-1.08-4.79,10.36,10.36,0,0,1,1.08-4.83,8.46,8.46,0,0,1,2.93-3.27,7.34,7.34,0,0,1,4.07-1.19,7.86,7.86,0,0,1,4.72,1.54A7.39,7.39,0,0,1,102,20V19.9a2,2,0,0,1,.56-1.45,1.93,1.93,0,0,1,1.44-.59M97.25,32.72A4.56,4.56,0,0,0,99.83,32a5,5,0,0,0,1.71-2,6.26,6.26,0,0,0,.62-2.83,6.41,6.41,0,0,0-.62-2.88,5,5,0,0,0-1.71-2,4.56,4.56,0,0,0-2.58-.73,4.44,4.44,0,0,0-2.53.73,4.94,4.94,0,0,0-1.72,2,6.41,6.41,0,0,0-.62,2.88A6.26,6.26,0,0,0,93,30a4.9,4.9,0,0,0,1.72,2,4.44,4.44,0,0,0,2.53.73M104,16.63a3.15,3.15,0,0,0-2.32,1,3.27,3.27,0,0,0-.3.35,9.85,9.85,0,0,0-1.7-.8,8.89,8.89,0,0,0-3.06-.51A8.64,8.64,0,0,0,91.88,18a9.71,9.71,0,0,0-3.35,3.74,11.62,11.62,0,0,0-1.23,5.4,11.54,11.54,0,0,0,1.23,5.36,9.52,9.52,0,0,0,3.39,3.74,8.83,8.83,0,0,0,4.83,1.38,7.82,7.82,0,0,0,2.8-.5,9.58,9.58,0,0,0,1.94-1,2,2,0,0,0,.19.22,3.28,3.28,0,0,0,4.64,0,3.26,3.26,0,0,0,.92-2.31V19.9a3.23,3.23,0,0,0-.93-2.34,3.19,3.19,0,0,0-2.31-.93ZM97.25,31.49A3.19,3.19,0,0,1,95.4,31a3.64,3.64,0,0,1-1.29-1.52,5.14,5.14,0,0,1-.5-2.29,5.3,5.3,0,0,1,.5-2.34A3.68,3.68,0,0,1,95.4,23.3a3.19,3.19,0,0,1,1.85-.53,3.26,3.26,0,0,1,1.89.53,3.7,3.7,0,0,1,1.3,1.51,5.44,5.44,0,0,1,.49,2.34,5.27,5.27,0,0,1-.49,2.29A3.66,3.66,0,0,1,99.14,31a3.26,3.26,0,0,1-1.89.53Z" transform="translate(-8.77 -10.12)"/>
      </g>
      <g>
        <path class="cls-1" d="M114.68,34a2,2,0,0,1-2,2,1.85,1.85,0,0,1-1.4-.58,2,2,0,0,1-.57-1.45V13.39a2,2,0,0,1,.58-1.45,2,2,0,0,1,1.45-.59,1.86,1.86,0,0,1,1.42.59,2,2,0,0,1,.55,1.45Z" transform="translate(-8.77 -10.12)"/>
        <path class="cls-2" d="M112.71,11.35a1.86,1.86,0,0,1,1.42.59,2,2,0,0,1,.55,1.45V34a2,2,0,0,1-2,2,1.85,1.85,0,0,1-1.4-.58,2,2,0,0,1-.57-1.45V13.39a2,2,0,0,1,.58-1.45,2,2,0,0,1,1.45-.59m0-1.23a3.23,3.23,0,0,0-3.27,3.27V34a3.26,3.26,0,0,0,.92,2.31,3.15,3.15,0,0,0,2.29,1A3.24,3.24,0,0,0,115.92,34V13.39a3.3,3.3,0,0,0-.89-2.3,3.09,3.09,0,0,0-2.32-1Z" transform="translate(-8.77 -10.12)"/>
      </g>
    </g>
    <g>
      <path class="cls-3" d="M29,28a9.5,9.5,0,0,1-18.7,1.28V28a1.45,1.45,0,0,1,1.45-1.48A1.49,1.49,0,0,1,13.2,28h0a6.48,6.48,0,0,0,12.43,2.55.58.58,0,0,0-.31-.77.59.59,0,0,0-.23-.05H20.87a2.36,2.36,0,0,1-2.37-2.35.58.58,0,0,1,.59-.59l8.07,0Z" transform="translate(-8.77 -10.12)"/>
      <path class="cls-4" d="M29,26.56l-1.32-.87a.53.53,0,0,0-.32-.1H25.72A6.48,6.48,0,0,0,13.5,26a2.73,2.73,0,0,0-1.8-.69,2.59,2.59,0,0,0-1.63.58A9.5,9.5,0,0,1,29,26.56Z" transform="translate(-8.77 -10.12)"/>
      <path class="cls-5" d="M20.87,30.91H24.1a5.3,5.3,0,1,1,.33-5.3H19.09a1.77,1.77,0,0,0-1.77,1.77A3.55,3.55,0,0,0,20.87,30.91Z" transform="translate(-8.77 -10.12)"/>
      <path class="cls-2" d="M29,26.56l-1.32-.87a.53.53,0,0,0-.32-.1H25.72A6.48,6.48,0,0,0,13.5,26a2.73,2.73,0,0,0-1.8-.69,2.59,2.59,0,0,0-1.63.58A8.51,8.51,0,0,0,10,27.05a9.87,9.87,0,0,0,.25,2.19V28a1.45,1.45,0,0,1,1.45-1.48A1.49,1.49,0,0,1,13.2,28h0a6.48,6.48,0,0,0,12.43,2.55.58.58,0,0,0-.31-.77.59.59,0,0,0-.23-.05H20.87a2.36,2.36,0,0,1-2.37-2.35.58.58,0,0,1,.59-.59l8.07,0L29,28c0-.3.05-.61.05-.91S29,26.72,29,26.56Zm-9.89-.95a1.77,1.77,0,0,0-1.77,1.77,3.55,3.55,0,0,0,3.55,3.53H24.1a5.3,5.3,0,1,1,.33-5.3Z" transform="translate(-8.77 -10.12)"/>
      <path class="cls-2" d="M19.5,17.55a9.5,9.5,0,1,1-9.5,9.5,9.5,9.5,0,0,1,9.5-9.5m0-1.23A10.73,10.73,0,1,0,30.23,27.05,10.74,10.74,0,0,0,19.5,16.32Z" transform="translate(-8.77 -10.12)"/>
      <g>
        <path class="cls-3" d="M21.11,21.66a2.12,2.12,0,0,0,1-.53.1.1,0,0,1,.16.1A2.68,2.68,0,0,1,20.36,23,2.57,2.57,0,0,1,18,22.42a2.69,2.69,0,0,1,.36-4.35,2.65,2.65,0,0,1,1.81-.34.1.1,0,0,1,0,.2,1.72,1.72,0,0,0-.42.18,1.93,1.93,0,0,0-.17,3.19A1.82,1.82,0,0,0,21.11,21.66Z" transform="translate(-8.77 -10.12)"/>
        <path class="cls-2" d="M19.75,17.69a2.12,2.12,0,0,1,.44,0,.1.1,0,0,1,0,.2,1.72,1.72,0,0,0-.42.18,1.93,1.93,0,0,0-.17,3.19,1.79,1.79,0,0,0,1.13.4,2.2,2.2,0,0,0,.36,0,2.12,2.12,0,0,0,1-.53.09.09,0,0,1,.07,0,.09.09,0,0,1,.09.13A2.68,2.68,0,0,1,20.36,23a2.72,2.72,0,0,1-.63.08A2.54,2.54,0,0,1,18,22.42a2.69,2.69,0,0,1,.36-4.35,2.63,2.63,0,0,1,1.37-.38m0-1.23h0A3.91,3.91,0,0,0,15.86,20a3.94,3.94,0,0,0,1.34,3.34,3.84,3.84,0,0,0,2.53.95,4.24,4.24,0,0,0,.94-.11,4,4,0,0,0,2.79-2.56,1.34,1.34,0,0,0-.18-1.21,1.34,1.34,0,0,0-2-.17.76.76,0,0,1-.4.2h-.11a.58.58,0,0,1-.36-.12.71.71,0,0,1-.29-.63.65.65,0,0,1,.33-.54l.15-.07a1.33,1.33,0,0,0,.93-1.37,1.35,1.35,0,0,0-1.12-1.22,4.48,4.48,0,0,0-.64-.05Z" transform="translate(-8.77 -10.12)"/>
      </g>
    </g>
  </g>
</svg>
