<?xml version="1.0" encoding="utf-8"?>
<!-- Generator: Adobe Illustrator 25.2.0, SVG Export Plug-In . SVG Version: 6.00 Build 0)  -->
<svg version="1.1" id="Layer_1" xmlns="http://www.w3.org/2000/svg" xmlns:xlink="http://www.w3.org/1999/xlink" x="0px" y="0px"
	 viewBox="0 0 105.9 26.4" style="enable-background:new 0 0 105.9 26.4;" xml:space="preserve">
<style type="text/css">
	.st0{display:none;}
	.st1{display:inline;}
	.st2{fill:#56BE91;}
	.st3{fill:#FFFFFF;}
	.st4{fill:#FCE588;}
</style>
<g class="st0">
	<g class="st1">
		<path class="st2" d="M45.1,7.1c-0.4-0.4-0.9-0.6-1.5-0.6c-0.5,0-1.1,0.2-1.4,0.6c-0.4,0.4-0.6,0.9-0.6,1.5l0,0
			C41.4,8.4,41.2,8.2,41,8c-0.6-0.5-1.3-0.8-2.1-1.1c-0.8-0.3-1.7-0.4-2.6-0.4c-1.4,0-2.9,0.4-4.1,1.2C31,8.5,29.9,9.6,29.3,11
			c-0.7,1.5-1.1,3.2-1.1,4.8c0,1.7,0.3,3.3,1.1,4.8c0.7,1.3,1.7,2.5,3,3.3c1.2,0.8,2.7,1.2,4.2,1.2c0.8,0,1.6-0.1,2.3-0.4
			c0.7-0.2,1.3-0.6,1.9-1c0.4-0.3,0.7-0.6,1-0.9c0,0.5,0.2,1,0.6,1.4c0.4,0.4,0.9,0.6,1.4,0.6s1.1-0.2,1.4-0.6
			c0.3-0.4,0.5-0.9,0.5-1.4V8.6C45.6,8,45.5,7.5,45.1,7.1z M41.2,18.6c-0.4,0.8-1,1.5-1.7,2c-1.6,1-3.5,1-5.1,0
			c-0.7-0.5-1.3-1.2-1.7-2c-0.8-1.8-0.8-3.9,0-5.7c0.4-0.8,1-1.5,1.7-2c1.6-1,3.5-1,5.1,0c0.7,0.5,1.3,1.2,1.7,2
			C42,14.7,42,16.8,41.2,18.6z"/>
		<path class="st2" d="M76.4,14.1v8.5c0,0.5-0.2,1.1-0.6,1.5s-0.9,0.6-1.4,0.6s-1.1-0.2-1.4-0.6c-0.4-0.4-0.6-0.9-0.6-1.5v-8.5
			c0-0.7-0.1-1.4-0.3-2c-0.2-0.6-0.5-1.1-1-1.4c-0.6-0.4-1.3-0.6-2-0.5c-0.8,0-1.5,0.2-2.2,0.5c-0.6,0.3-1,0.8-1.3,1.4
			c-0.3,0.6-0.5,1.3-0.4,2v8.5c0,0.5-0.2,1.1-0.6,1.5s-0.9,0.6-1.4,0.6s-1.1-0.2-1.4-0.6c-0.4-0.4-0.6-0.9-0.6-1.5v-8.5
			c0-0.7-0.1-1.4-0.3-2s-0.5-1.1-1-1.4c-0.6-0.4-1.3-0.6-2-0.5c-0.8,0-1.5,0.2-2.2,0.5c-0.6,0.3-1,0.8-1.3,1.4
			c-0.3,0.6-0.5,1.3-0.5,2v8.5c0,0.5-0.2,1.1-0.6,1.5c-0.4,0.4-0.9,0.6-1.4,0.6s-1.1-0.2-1.4-0.6c-0.4-0.4-0.6-0.9-0.6-1.5V8.9
			c0-0.5,0.2-1.1,0.6-1.5c0.4-0.4,0.9-0.6,1.4-0.6S53,7,53.3,7.4c0.4,0.4,0.6,0.9,0.6,1.5v0.5C54,9.3,54.2,9.1,54.3,9
			c0.4-0.5,0.8-0.9,1.3-1.2c0.5-0.4,1.1-0.7,1.7-0.9c0.6-0.2,1.3-0.4,2-0.4c1.4-0.1,2.9,0.3,3.9,1.3c0.7,0.7,1.1,1.5,1.4,2.4
			c0.3-0.6,0.7-1.1,1.2-1.5c0.6-0.6,1.3-1.1,2-1.5c2-0.9,4.4-0.8,6.3,0.4c0.9,0.7,1.5,1.6,1.8,2.7C76.3,11.5,76.5,12.8,76.4,14.1z"
			/>
		<path class="st2" d="M96.7,7.1c-0.4-0.4-0.9-0.6-1.4-0.6s-1.1,0.2-1.4,0.6c-0.4,0.4-0.6,0.9-0.6,1.5l0,0C93,8.4,92.8,8.2,92.6,8
			c-0.6-0.5-1.3-0.8-2.1-1.1c-0.8-0.3-1.7-0.4-2.6-0.4c-1.4,0-2.9,0.4-4.1,1.2s-2.3,1.9-2.9,3.3c-0.7,1.5-1.1,3.2-1.1,4.8
			c0,1.7,0.3,3.3,1.1,4.8c0.7,1.3,1.7,2.5,3,3.3c1.2,0.8,2.7,1.2,4.2,1.2c0.8,0,1.6-0.1,2.3-0.4c0.7-0.2,1.3-0.6,1.9-1
			c0.4-0.3,0.7-0.6,1-0.9c0,0.5,0.2,1,0.6,1.4s0.9,0.6,1.4,0.6s1.1-0.2,1.4-0.6c0.4-0.4,0.6-0.9,0.6-1.5V8.6
			C97.3,8,97.1,7.5,96.7,7.1z M92.8,18.6c-0.4,0.8-1,1.5-1.7,2c-1.6,1-3.5,1-5.1,0c-0.7-0.5-1.3-1.2-1.7-2c-0.8-1.8-0.8-3.9,0-5.7
			c0.4-0.8,1-1.5,1.7-2c1.6-1,3.5-1,5.1,0c0.7,0.5,1.3,1.2,1.7,2C93.6,14.7,93.6,16.8,92.8,18.6z"/>
		<path class="st2" d="M105.9,22.7c0,0.5-0.2,1.1-0.6,1.5s-0.9,0.6-1.5,0.6c-0.5,0-1-0.2-1.4-0.6s-0.6-0.9-0.6-1.5V2
			c0-1.1,0.9-2,2-2c0.5,0,1.1,0.2,1.4,0.6c0.4,0.4,0.6,0.9,0.6,1.4L105.9,22.7z"/>
	</g>
	<g class="st1">
		<path class="st3" d="M20.2,16.6c-0.5,5.2-5.1,9-10.4,8.5c-4-0.4-7.4-3.3-8.3-7.3v-1.2c0-0.8,0.6-1.5,1.4-1.5l0,0
			c0.8,0,1.5,0.7,1.5,1.5l0,0c0,3.6,2.9,6.5,6.5,6.5c2.6,0,4.9-1.5,5.9-3.9c0.1-0.3,0-0.7-0.3-0.8c-0.1,0-0.1,0-0.2,0h-4.2
			c-1.3,0-2.4-1-2.4-2.3l0,0c0-0.3,0.3-0.6,0.6-0.6l0,0h8.1L20.2,16.6z"/>
		<path class="st2" d="M20.2,15.2l-1.3-0.9c-0.1,0-0.2-0.1-0.3-0.1H17c-1.3-3.3-5.1-5-8.4-3.6c-1.8,0.7-3.2,2.2-3.8,4.1
			C4.2,14.2,3.6,14,2.9,14c-0.6,0-1.2,0.2-1.6,0.6C2,9.4,6.7,5.7,11.9,6.3C16.5,6.9,20,10.7,20.2,15.2L20.2,15.2z"/>
		<path class="st4" d="M12.1,19.6h3.2C13.7,22,10.4,22.7,8,21s-3.1-4.9-1.5-7.3s4.9-3.1,7.3-1.5c0.8,0.5,1.4,1.2,1.8,2h-5.3
			c-1,0-1.8,0.8-1.8,1.8C8.6,18,10.1,19.6,12.1,19.6L12.1,19.6z"/>
		<path class="st2" d="M20.2,15.2l-1.3-0.9c-0.1,0-0.2-0.1-0.3-0.1H17c-1.3-3.3-5.1-5-8.4-3.6c-1.8,0.7-3.2,2.2-3.8,4.1
			C4.2,14.2,3.6,14,2.9,14c-0.6,0-1.2,0.2-1.6,0.6c0,0.4-0.1,0.8-0.1,1.1c0,0.7,0.1,1.5,0.2,2.2v-1.3c0-0.8,0.6-1.5,1.4-1.5l0,0
			c0.8,0,1.5,0.7,1.5,1.5l0,0c0,3.6,2.9,6.5,6.5,6.5c2.6,0,4.9-1.5,5.9-3.9c0.1-0.3,0-0.7-0.3-0.8c-0.1,0-0.1,0-0.2,0H12
			c-1.3,0-2.4-1-2.4-2.3l0,0c0-0.3,0.3-0.6,0.6-0.6l0,0h8.1l1.8,1.2c0-0.3,0-0.6,0-0.9C20.2,15.5,20.2,15.4,20.2,15.2z M10.3,14.2
			c-1,0-1.8,0.8-1.8,1.8c0,1.9,1.6,3.5,3.5,3.5l0,0h3.2c-1.6,2.4-4.9,3.1-7.3,1.5s-3.1-4.9-1.5-7.3s4.9-3.1,7.3-1.5
			c0.8,0.5,1.4,1.2,1.8,2H10.3z"/>
		<path class="st2" d="M10.7,6.2c5.2,0,9.5,4.3,9.5,9.5s-4.3,9.5-9.5,9.5s-9.5-4.3-9.5-9.5l0,0C1.2,10.5,5.5,6.2,10.7,6.2L10.7,6.2
			 M10.7,5C4.8,5,0,9.8,0,15.7s4.8,10.7,10.7,10.7s10.7-4.8,10.7-10.7l0,0C21.5,9.8,16.7,5,10.7,5z"/>
		<g>
			<path class="st3" d="M12.3,10.3c0.4-0.1,0.7-0.3,1-0.5c0,0,0.1-0.1,0.1,0c0,0,0.1,0.1,0,0.1c-0.3,0.9-1,1.6-1.9,1.8
				c-0.8,0.2-1.7,0-2.3-0.6c-1-1-1.2-2.7-0.2-3.8c0.6-0.7,1.5-1.1,2.5-0.9c0.1,0,0.1,0,0.1,0.1s0,0.1-0.1,0.1s-0.3,0.1-0.4,0.2
				c-0.9,0.6-1.2,1.7-0.7,2.6c0.1,0.2,0.3,0.4,0.5,0.5C11.3,10.3,11.8,10.4,12.3,10.3z"/>
			<path class="st2" d="M11,6.4c0.1,0,0.3,0,0.4,0c0.1,0,0.1,0,0.1,0.1s0,0.1-0.1,0.1S11.1,6.7,11,6.8c-0.9,0.6-1.2,1.7-0.7,2.6
				c0.1,0.2,0.3,0.4,0.5,0.5c0.3,0.3,0.7,0.4,1.1,0.4c0.1,0,0.2,0,0.4,0c0.4-0.1,0.7-0.3,1-0.5c0,0,0,0,0.1,0s0.1,0,0.1,0.1l0,0
				c-0.3,0.8-1,1.5-1.9,1.7c-0.2,0.1-0.4,0.1-0.6,0.1c-0.6,0-1.2-0.2-1.7-0.6C8.1,10.1,8,8.4,9,7.3C9.5,6.7,10.2,6.3,11,6.4 M11,5.1
				L11,5.1c-0.7,0-1.4,0.2-2,0.6c-1.9,1.1-2.5,3.5-1.3,5.4c0.2,0.3,0.5,0.7,0.8,0.9c0.7,0.6,1.6,1,2.5,1c0.3,0,0.6,0,0.9-0.1
				c1.3-0.3,2.3-1.3,2.8-2.6c0.1-0.4,0.1-0.9-0.2-1.2c-0.3-0.4-0.7-0.6-1.1-0.6c-0.3,0-0.7,0.1-0.9,0.4c-0.1,0.1-0.2,0.2-0.4,0.2H12
				c-0.1,0-0.3,0-0.4-0.1c-0.2-0.1-0.3-0.4-0.3-0.6c0-0.2,0.1-0.4,0.3-0.5l0.1-0.1c0.6-0.2,1-0.8,0.9-1.4s-0.5-1.1-1.1-1.2
				C11.4,5.1,11.2,5.1,11,5.1L11,5.1z"/>
		</g>
	</g>
</g>
<g class="st0">
	<g class="st1">
		<g>
			<path class="st3" d="M47.2,8.7c-0.3-0.3-0.7-0.5-1.2-0.5s-0.9,0.2-1.2,0.5s-0.5,0.7-0.5,1.2l0,0c-0.2-0.2-0.3-0.3-0.5-0.4
				c-0.5-0.4-1.1-0.7-1.7-0.9c-0.7-0.2-1.4-0.4-2.2-0.4c-1.2,0-2.3,0.3-3.3,1c-1,0.6-1.8,1.5-2.4,2.7c-0.6,1.1-0.9,2.5-0.9,4
				s0.3,2.8,0.9,3.9c0.6,1.1,1.4,2,2.4,2.7c1,0.6,2.2,1,3.4,1c0.7,0,1.3-0.1,1.9-0.3c0.6-0.2,1.1-0.5,1.5-0.8
				c0.3-0.2,0.6-0.5,0.8-0.7c0,0.5,0.2,0.8,0.5,1.2c0.3,0.3,0.7,0.5,1.2,0.5s0.9-0.2,1.2-0.5s0.5-0.7,0.5-1.2V9.9
				C47.6,9.4,47.5,9,47.2,8.7z M44,18.1c-0.3,0.7-0.8,1.2-1.4,1.6c-0.6,0.4-1.3,0.6-2.1,0.6s-1.5-0.2-2.1-0.6s-1.1-0.9-1.4-1.6
				c-0.3-0.7-0.5-1.5-0.5-2.3c0-0.9,0.2-1.7,0.5-2.4c0.3-0.7,0.8-1.2,1.4-1.6c0.6-0.4,1.3-0.6,2.1-0.6s1.5,0.2,2.1,0.6
				c0.6,0.4,1.1,0.9,1.4,1.6c0.3,0.7,0.5,1.5,0.5,2.4C44.5,16.7,44.3,17.4,44,18.1z"/>
		</g>
		<g>
			<path class="st3" d="M72.9,14.4v7c0,0.5-0.2,0.9-0.5,1.2c-0.3,0.3-0.7,0.5-1.2,0.5s-0.9-0.2-1.2-0.5c-0.3-0.3-0.5-0.7-0.5-1.2v-7
				c0-0.6-0.1-1.1-0.2-1.6s-0.4-0.9-0.8-1.2s-0.9-0.4-1.6-0.4s-1.3,0.1-1.8,0.4c-0.5,0.3-0.9,0.7-1.1,1.2c-0.2,0.5-0.4,1-0.4,1.6v7
				c0,0.5-0.2,0.9-0.5,1.2c-0.3,0.3-0.7,0.5-1.2,0.5s-0.9-0.2-1.2-0.5s-0.5-0.7-0.5-1.2v-7c0-0.6-0.1-1.1-0.2-1.6
				c-0.1-0.5-0.4-0.9-0.8-1.2c-0.4-0.3-0.9-0.4-1.6-0.4c-0.7,0-1.3,0.1-1.8,0.4c-0.5,0.3-0.9,0.7-1.1,1.2c-0.2,0.5-0.4,1-0.4,1.6v7
				c0,0.5-0.2,0.9-0.5,1.2c-0.3,0.3-0.7,0.5-1.2,0.5s-0.9-0.2-1.2-0.5s-0.5-0.7-0.5-1.2V10.1c0-0.5,0.2-0.9,0.5-1.2s0.7-0.5,1.2-0.5
				s0.9,0.2,1.2,0.5s0.5,0.7,0.5,1.2v0.5c0.1-0.1,0.2-0.2,0.3-0.4c0.3-0.4,0.6-0.7,1.1-1c0.4-0.3,0.9-0.6,1.4-0.8s1.1-0.3,1.7-0.3
				c1.5,0,2.5,0.4,3.2,1.1c0.5,0.5,0.9,1.2,1.2,2c0.2-0.4,0.5-0.8,1-1.3c0.5-0.5,1-0.9,1.7-1.2c0.6-0.3,1.4-0.5,2.2-0.5
				c1.3,0,2.3,0.3,3,0.8c0.7,0.6,1.2,1.3,1.4,2.3C72.8,12.2,72.9,13.3,72.9,14.4z"/>
		</g>
		<g>
			<path class="st3" d="M89.5,8.7c-0.3-0.3-0.7-0.5-1.2-0.5s-0.9,0.2-1.2,0.5c-0.3,0.3-0.5,0.7-0.5,1.2l0,0
				c-0.2-0.2-0.3-0.3-0.5-0.4c-0.5-0.4-1.1-0.7-1.7-0.9c-0.7-0.2-1.4-0.4-2.2-0.4c-1.2,0-2.3,0.3-3.3,1c-1,0.6-1.8,1.5-2.4,2.7
				c-0.6,1.1-0.9,2.5-0.9,4s0.3,2.8,0.9,3.9s1.4,2,2.4,2.7c1,0.6,2.2,1,3.4,1c0.7,0,1.3-0.1,1.9-0.3c0.6-0.2,1.1-0.5,1.5-0.8
				c0.3-0.2,0.6-0.5,0.8-0.7c0,0.5,0.2,0.9,0.5,1.2c0.3,0.3,0.7,0.5,1.2,0.5s0.9-0.2,1.2-0.5c0.3-0.3,0.5-0.7,0.5-1.2V9.9
				C90,9.4,89.8,9,89.5,8.7z M86.3,18.1c-0.3,0.7-0.8,1.2-1.4,1.6s-1.3,0.6-2.1,0.6c-0.8,0-1.5-0.2-2.1-0.6s-1.1-0.9-1.4-1.6
				s-0.5-1.5-0.5-2.3c0-0.9,0.2-1.7,0.5-2.4c0.3-0.7,0.8-1.2,1.4-1.6c0.6-0.4,1.3-0.6,2.1-0.6c0.8,0,1.5,0.2,2.1,0.6
				c0.6,0.4,1.1,0.9,1.4,1.6c0.3,0.7,0.5,1.5,0.5,2.4C86.8,16.7,86.7,17.4,86.3,18.1z"/>
		</g>
		<g>
			<path class="st3" d="M97.1,21.5c0,0.5-0.2,0.9-0.5,1.2c-0.3,0.3-0.7,0.5-1.2,0.5s-0.8-0.2-1.2-0.5c-0.3-0.3-0.5-0.7-0.5-1.2v-17
				c0-0.5,0.2-0.9,0.5-1.2C94.6,3,95,2.8,95.5,2.8s0.9,0.2,1.2,0.5C97,3.6,97.1,4,97.1,4.5V21.5z"/>
		</g>
	</g>
	<g class="st1">
		<g transform="translate(0.000000,512.000000) scale(0.100000,-0.100000)">
			<g>
				<path class="st3" d="M127.3,5112.2c-3.1-2.5-5.5-7.5-5.3-11c0-1.1,4.8-23.1,10.5-48.9c7.7-34.7,10.3-47.2,10-48
					c-0.4-0.8-0.7-1-1.8-1l-1.3,0.1l-5.4,12.7c-3,6.9-8.9,21-13.2,31.4c-4.3,10.4-8.5,20-9.4,21.4c-4.4,7.4-12.7,9.8-19.1,5.7
					c-1.4-0.9-3.1-2.5-3.8-3.6c-1.6-2.4-2.4-6.8-1.7-10.3c0.4-2.2,23.3-66.7,26.6-75.2l1.2-3.1l1.6,0.4c0.8,0.2,4.5,1.3,8.1,2.4
					c11.6,3.6,58.3,15.5,60.3,15.4c5.4-0.3,7.6-6.9,3.9-11.1c-1.2-1.3-2.3-1.9-14.1-6.2c-7-2.6-13.5-5.1-14.3-5.7
					c-3.3-2.1-3.6-5.6-0.6-7.9c0.8-0.6,13.6-5.2,28.5-10.2s27.7-9.5,28.4-10s1.8-1.9,2.5-3.1c1-1.9,1-2.3,0.2-4.1
					c-0.7-1.6-1.2-2.1-3.1-2.9c-1.5-0.6-3-0.8-4.5-0.6c-1.3,0.2-9.9,2.5-19.2,5.1s-17,4.5-17.3,4.3c-0.2-0.3-0.2-0.8,0.1-1.1
					c0.2-0.3,10.4-5.4,22.5-11.3c12.2-5.9,22.7-11.2,23.5-11.8c2.3-1.9,3-4.4,1.9-7c-0.8-1.8-1.3-2.4-2.9-3c-1-0.4-2.5-0.7-3.3-0.7
					s-11.2,4.5-22.9,10s-21.7,9.7-22,9.6s-0.5-0.6-0.4-1c0.1-0.5,7.7-5.7,17-11.8c9.3-6,17.2-11.4,17.7-12c1.9-2.1,2.3-4.2,1.3-6.5
					c-0.7-1.7-1.3-2.4-2.6-2.9c-3.7-1.5-4.8-1-25.3,11.2c-10.7,6.3-19.7,11.4-20,11.3c-0.4-0.1-0.6-0.6-0.6-1s4.7-5.1,10.4-10.4
					s10.6-10.2,10.9-10.9c0.7-1.8,0.4-3.2-0.8-4.7c-1.6-1.8-3.2-2.2-5.3-1.4c-1.1,0.4-8,5.1-15.4,10.5
					c-14.6,10.6-38.7,26.7-51.5,34.7c-4.4,2.7-15.8,9.7-25.3,15.6s-18.4,11.2-19.7,11.7c-12,5-24.1-7.6-17.9-18.6
					c0.7-1.2,1.7-2.7,2.3-3.3c1.6-1.6,81.7-63.5,85.9-66.5c20.8-14.4,37.6-18.7,57.6-14.7c6.7,1.3,22.2,7.5,28.2,11.2
					c16.9,10.5,24.8,24,26.3,44.6c0.6,8.6,0.2,14.1-3.7,50.9c-3.6,34-3.7,34.4-4.5,64.2c-0.5,16.5-1.1,30.7-1.5,31.6
					c-1.6,4-5.4,6.8-9.5,7c-2.6,0.1-6.7-1.3-8.4-3.1c-2.5-2.5-3.2-6.4-5.4-30.5c-2.2-24.3-2.4-25-4.9-24.7c-0.6,0-1.2,0.4-1.6,0.8
					c-0.3,0.4-3,19.3-5.9,42.1c-3.8,29.8-5.7,42.2-6.4,44.1c-1.9,4.7-7.1,8.5-12,8.7c-3.3,0.2-7.8-1.7-10.2-4.3
					c-2-2-3.4-5.4-3.7-8.2c0-0.8,1.5-18.3,3.4-38.7c2-20.5,3.5-37.6,3.3-38c-0.3-1.1-2.1-1.7-3.2-1.1c-0.7,0.4-2.9,8.9-11.2,43
					c-5.7,23.4-10.8,43.7-11.4,45.1C144.7,5114.6,133.9,5117.4,127.3,5112.2z"/>
			</g>
		</g>
	</g>
</g>
<g>
	<g>
		<g>
			<path class="st2" d="M47.2,8.7c-0.3-0.3-0.7-0.5-1.2-0.5s-0.9,0.2-1.2,0.5s-0.5,0.7-0.5,1.2l0,0c-0.2-0.2-0.3-0.3-0.5-0.4
				c-0.5-0.4-1.1-0.7-1.7-0.9c-0.7-0.2-1.4-0.4-2.2-0.4c-1.2,0-2.3,0.3-3.3,1c-1,0.6-1.8,1.5-2.4,2.7c-0.6,1.1-0.9,2.5-0.9,4
				s0.3,2.8,0.9,3.9c0.6,1.1,1.4,2,2.4,2.7c1,0.6,2.2,1,3.4,1c0.7,0,1.3-0.1,1.9-0.3c0.6-0.2,1.1-0.5,1.5-0.8
				c0.3-0.2,0.6-0.5,0.8-0.7c0,0.5,0.2,0.8,0.5,1.2c0.3,0.3,0.7,0.5,1.2,0.5s0.9-0.2,1.2-0.5s0.5-0.7,0.5-1.2V9.9
				C47.6,9.4,47.5,9,47.2,8.7z M44,18.1c-0.3,0.7-0.8,1.2-1.4,1.6c-0.6,0.4-1.3,0.6-2.1,0.6s-1.5-0.2-2.1-0.6s-1.1-0.9-1.4-1.6
				c-0.3-0.7-0.5-1.5-0.5-2.3c0-0.9,0.2-1.7,0.5-2.4c0.3-0.7,0.8-1.2,1.4-1.6c0.6-0.4,1.3-0.6,2.1-0.6s1.5,0.2,2.1,0.6
				c0.6,0.4,1.1,0.9,1.4,1.6c0.3,0.7,0.5,1.5,0.5,2.4C44.5,16.7,44.3,17.4,44,18.1z"/>
		</g>
		<g>
			<path class="st2" d="M72.9,14.4v7c0,0.5-0.2,0.9-0.5,1.2c-0.3,0.3-0.7,0.5-1.2,0.5s-0.9-0.2-1.2-0.5c-0.3-0.3-0.5-0.7-0.5-1.2v-7
				c0-0.6-0.1-1.1-0.2-1.6s-0.4-0.9-0.8-1.2s-0.9-0.4-1.6-0.4s-1.3,0.1-1.8,0.4c-0.5,0.3-0.9,0.7-1.1,1.2c-0.2,0.5-0.4,1-0.4,1.6v7
				c0,0.5-0.2,0.9-0.5,1.2c-0.3,0.3-0.7,0.5-1.2,0.5s-0.9-0.2-1.2-0.5s-0.5-0.7-0.5-1.2v-7c0-0.6-0.1-1.1-0.2-1.6
				c-0.1-0.5-0.4-0.9-0.8-1.2c-0.4-0.3-0.9-0.4-1.6-0.4c-0.7,0-1.3,0.1-1.8,0.4c-0.5,0.3-0.9,0.7-1.1,1.2c-0.2,0.5-0.4,1-0.4,1.6v7
				c0,0.5-0.2,0.9-0.5,1.2c-0.3,0.3-0.7,0.5-1.2,0.5s-0.9-0.2-1.2-0.5s-0.5-0.7-0.5-1.2V10.1c0-0.5,0.2-0.9,0.5-1.2s0.7-0.5,1.2-0.5
				s0.9,0.2,1.2,0.5s0.5,0.7,0.5,1.2v0.5c0.1-0.1,0.2-0.2,0.3-0.4c0.3-0.4,0.6-0.7,1.1-1c0.4-0.3,0.9-0.6,1.4-0.8s1.1-0.3,1.7-0.3
				c1.5,0,2.5,0.4,3.2,1.1c0.5,0.5,0.9,1.2,1.2,2c0.2-0.4,0.5-0.8,1-1.3c0.5-0.5,1-0.9,1.7-1.2c0.6-0.3,1.4-0.5,2.2-0.5
				c1.3,0,2.3,0.3,3,0.8c0.7,0.6,1.2,1.3,1.4,2.3C72.8,12.2,72.9,13.3,72.9,14.4z"/>
		</g>
		<g>
			<path class="st2" d="M89.5,8.7c-0.3-0.3-0.7-0.5-1.2-0.5s-0.9,0.2-1.2,0.5c-0.3,0.3-0.5,0.7-0.5,1.2l0,0
				c-0.2-0.2-0.3-0.3-0.5-0.4c-0.5-0.4-1.1-0.7-1.7-0.9c-0.7-0.2-1.4-0.4-2.2-0.4c-1.2,0-2.3,0.3-3.3,1c-1,0.6-1.8,1.5-2.4,2.7
				c-0.6,1.1-0.9,2.5-0.9,4s0.3,2.8,0.9,3.9s1.4,2,2.4,2.7c1,0.6,2.2,1,3.4,1c0.7,0,1.3-0.1,1.9-0.3c0.6-0.2,1.1-0.5,1.5-0.8
				c0.3-0.2,0.6-0.5,0.8-0.7c0,0.5,0.2,0.9,0.5,1.2c0.3,0.3,0.7,0.5,1.2,0.5s0.9-0.2,1.2-0.5c0.3-0.3,0.5-0.7,0.5-1.2V9.9
				C90,9.4,89.8,9,89.5,8.7z M86.3,18.1c-0.3,0.7-0.8,1.2-1.4,1.6s-1.3,0.6-2.1,0.6c-0.8,0-1.5-0.2-2.1-0.6s-1.1-0.9-1.4-1.6
				s-0.5-1.5-0.5-2.3c0-0.9,0.2-1.7,0.5-2.4c0.3-0.7,0.8-1.2,1.4-1.6c0.6-0.4,1.3-0.6,2.1-0.6c0.8,0,1.5,0.2,2.1,0.6
				c0.6,0.4,1.1,0.9,1.4,1.6c0.3,0.7,0.5,1.5,0.5,2.4C86.8,16.7,86.7,17.4,86.3,18.1z"/>
		</g>
		<g>
			<path class="st2" d="M97.1,21.5c0,0.5-0.2,0.9-0.5,1.2c-0.3,0.3-0.7,0.5-1.2,0.5s-0.8-0.2-1.2-0.5c-0.3-0.3-0.5-0.7-0.5-1.2v-17
				c0-0.5,0.2-0.9,0.5-1.2C94.6,3,95,2.8,95.5,2.8s0.9,0.2,1.2,0.5C97,3.6,97.1,4,97.1,4.5V21.5z"/>
		</g>
	</g>
	<g>
		<g transform="translate(0.000000,512.000000) scale(0.100000,-0.100000)">
			<g>
				<path class="st2" d="M127.3,5112.2c-3.1-2.5-5.5-7.5-5.3-11c0-1.1,4.8-23.1,10.5-48.9c7.7-34.7,10.3-47.2,10-48
					c-0.4-0.8-0.7-1-1.8-1l-1.3,0.1l-5.4,12.7c-3,6.9-8.9,21-13.2,31.4c-4.3,10.4-8.5,20-9.4,21.4c-4.4,7.4-12.7,9.8-19.1,5.7
					c-1.4-0.9-3.1-2.5-3.8-3.6c-1.6-2.4-2.4-6.8-1.7-10.3c0.4-2.2,23.3-66.7,26.6-75.2l1.2-3.1l1.6,0.4c0.8,0.2,4.5,1.3,8.1,2.4
					c11.6,3.6,58.3,15.5,60.3,15.4c5.4-0.3,7.6-6.9,3.9-11.1c-1.2-1.3-2.3-1.9-14.1-6.2c-7-2.6-13.5-5.1-14.3-5.7
					c-3.3-2.1-3.6-5.6-0.6-7.9c0.8-0.6,13.6-5.2,28.5-10.2s27.7-9.5,28.4-10s1.8-1.9,2.5-3.1c1-1.9,1-2.3,0.2-4.1
					c-0.7-1.6-1.2-2.1-3.1-2.9c-1.5-0.6-3-0.8-4.5-0.6c-1.3,0.2-9.9,2.5-19.2,5.1s-17,4.5-17.3,4.3c-0.2-0.3-0.2-0.8,0.1-1.1
					c0.2-0.3,10.4-5.4,22.5-11.3c12.2-5.9,22.7-11.2,23.5-11.8c2.3-1.9,3-4.4,1.9-7c-0.8-1.8-1.3-2.4-2.9-3c-1-0.4-2.5-0.7-3.3-0.7
					s-11.2,4.5-22.9,10s-21.7,9.7-22,9.6s-0.5-0.6-0.4-1c0.1-0.5,7.7-5.7,17-11.8c9.3-6,17.2-11.4,17.7-12c1.9-2.1,2.3-4.2,1.3-6.5
					c-0.7-1.7-1.3-2.4-2.6-2.9c-3.7-1.5-4.8-1-25.3,11.2c-10.7,6.3-19.7,11.4-20,11.3c-0.4-0.1-0.6-0.6-0.6-1s4.7-5.1,10.4-10.4
					s10.6-10.2,10.9-10.9c0.7-1.8,0.4-3.2-0.8-4.7c-1.6-1.8-3.2-2.2-5.3-1.4c-1.1,0.4-8,5.1-15.4,10.5
					c-14.6,10.6-38.7,26.7-51.5,34.7c-4.4,2.7-15.8,9.7-25.3,15.6s-18.4,11.2-19.7,11.7c-12,5-24.1-7.6-17.9-18.6
					c0.7-1.2,1.7-2.7,2.3-3.3c1.6-1.6,81.7-63.5,85.9-66.5c20.8-14.4,37.6-18.7,57.6-14.7c6.7,1.3,22.2,7.5,28.2,11.2
					c16.9,10.5,24.8,24,26.3,44.6c0.6,8.6,0.2,14.1-3.7,50.9c-3.6,34-3.7,34.4-4.5,64.2c-0.5,16.5-1.1,30.7-1.5,31.6
					c-1.6,4-5.4,6.8-9.5,7c-2.6,0.1-6.7-1.3-8.4-3.1c-2.5-2.5-3.2-6.4-5.4-30.5c-2.2-24.3-2.4-25-4.9-24.7c-0.6,0-1.2,0.4-1.6,0.8
					c-0.3,0.4-3,19.3-5.9,42.1c-3.8,29.8-5.7,42.2-6.4,44.1c-1.9,4.7-7.1,8.5-12,8.7c-3.3,0.2-7.8-1.7-10.2-4.3
					c-2-2-3.4-5.4-3.7-8.2c0-0.8,1.5-18.3,3.4-38.7c2-20.5,3.5-37.6,3.3-38c-0.3-1.1-2.1-1.7-3.2-1.1c-0.7,0.4-2.9,8.9-11.2,43
					c-5.7,23.4-10.8,43.7-11.4,45.1C144.7,5114.6,133.9,5117.4,127.3,5112.2z"/>
			</g>
		</g>
	</g>
</g>
</svg>
