<svg id="Layer_1" data-name="Layer 1" xmlns="http://www.w3.org/2000/svg" width="92.88" height="25.4" viewBox="0 0 92.88 25.4">
  <defs>
    <style>
      .cls-1 {
        fill: #fff;
      }
    </style>
  </defs>
  <g>
    <g>
      <path class="cls-1" d="M47.16,8.65A1.6,1.6,0,0,0,46,8.18a1.57,1.57,0,0,0-1.18.48,1.66,1.66,0,0,0-.47,1.2v0a4.76,4.76,0,0,0-.53-.44,6.46,6.46,0,0,0-1.71-.91,6.29,6.29,0,0,0-2.17-.36,6.05,6.05,0,0,0-3.35,1,7,7,0,0,0-2.4,2.68,8.57,8.57,0,0,0-.89,4,8.43,8.43,0,0,0,.89,3.93,6.89,6.89,0,0,0,2.43,2.69,6.26,6.26,0,0,0,3.43,1A5.29,5.29,0,0,0,42,23.06a6.32,6.32,0,0,0,1.55-.83,5.52,5.52,0,0,0,.82-.74,1.67,1.67,0,0,0,.47,1.16,1.69,1.69,0,0,0,2.36,0,1.65,1.65,0,0,0,.47-1.19V9.86A1.64,1.64,0,0,0,47.16,8.65ZM44,18.14a4.05,4.05,0,0,1-1.42,1.64,3.66,3.66,0,0,1-2.11.61,3.59,3.59,0,0,1-2.08-.61,4.05,4.05,0,0,1-1.42-1.64,5.35,5.35,0,0,1-.5-2.33,5.42,5.42,0,0,1,.5-2.36,4.08,4.08,0,0,1,1.42-1.65,3.65,3.65,0,0,1,2.08-.6,3.73,3.73,0,0,1,2.11.6A4.08,4.08,0,0,1,44,13.45a5.42,5.42,0,0,1,.5,2.36A5.35,5.35,0,0,1,44,18.14Z" transform="translate(-4.25 -0.51)"/>
      <path class="cls-1" d="M72.91,14.44v7a1.64,1.64,0,0,1-.46,1.19,1.6,1.6,0,0,1-1.18.48,1.57,1.57,0,0,1-1.18-.48,1.65,1.65,0,0,1-.47-1.19v-7a5.56,5.56,0,0,0-.22-1.64,2.27,2.27,0,0,0-.79-1.16A2.72,2.72,0,0,0,67,11.2a3.45,3.45,0,0,0-1.78.44,2.75,2.75,0,0,0-1.11,1.16,3.53,3.53,0,0,0-.37,1.64v7a1.65,1.65,0,0,1-.47,1.19,1.69,1.69,0,0,1-2.36,0,1.64,1.64,0,0,1-.46-1.19v-7a5.92,5.92,0,0,0-.22-1.64,2.22,2.22,0,0,0-.8-1.16,2.67,2.67,0,0,0-1.64-.44,3.49,3.49,0,0,0-1.79.44,2.88,2.88,0,0,0-1.11,1.16,3.66,3.66,0,0,0-.37,1.64v7A1.64,1.64,0,0,1,54,22.65a1.69,1.69,0,0,1-2.36,0,1.65,1.65,0,0,1-.47-1.19V10.13a1.65,1.65,0,0,1,.47-1.19,1.69,1.69,0,0,1,2.36,0,1.64,1.64,0,0,1,.46,1.19v.45l.28-.35a5.72,5.72,0,0,1,1.07-1,5.66,5.66,0,0,1,1.39-.76,4.82,4.82,0,0,1,1.68-.29,4.37,4.37,0,0,1,3.23,1.06,4.85,4.85,0,0,1,1.17,2,6.61,6.61,0,0,1,1-1.27,6.16,6.16,0,0,1,1.66-1.24A5.37,5.37,0,0,1,71.12,9a4.37,4.37,0,0,1,1.41,2.27A12.23,12.23,0,0,1,72.91,14.44Z" transform="translate(-4.25 -0.51)"/>
      <path class="cls-1" d="M89.53,8.65a1.7,1.7,0,0,0-2.36,0,1.65,1.65,0,0,0-.46,1.2v0a4.9,4.9,0,0,0-.54-.44,6.4,6.4,0,0,0-3.88-1.27,6,6,0,0,0-3.34,1,6.86,6.86,0,0,0-2.4,2.68,8.45,8.45,0,0,0-.9,4,8.31,8.31,0,0,0,.9,3.93A6.79,6.79,0,0,0,79,22.43a6.28,6.28,0,0,0,3.43,1,5.26,5.26,0,0,0,1.93-.34,6.32,6.32,0,0,0,1.55-.83,6.19,6.19,0,0,0,.83-.74,1.62,1.62,0,0,0,.46,1.16,1.69,1.69,0,0,0,2.36,0A1.65,1.65,0,0,0,90,21.46V9.86A1.64,1.64,0,0,0,89.53,8.65Zm-3.19,9.49a4.05,4.05,0,0,1-1.42,1.64,3.9,3.9,0,0,1-4.19,0,4,4,0,0,1-1.41-1.64,5.21,5.21,0,0,1-.51-2.33,5.28,5.28,0,0,1,.51-2.36,4,4,0,0,1,1.41-1.65,4,4,0,0,1,4.19,0,4.08,4.08,0,0,1,1.42,1.65,5.42,5.42,0,0,1,.5,2.36A5.35,5.35,0,0,1,86.34,18.14Z" transform="translate(-4.25 -0.51)"/>
      <path class="cls-1" d="M97.13,21.46a1.64,1.64,0,0,1-1.67,1.67,1.55,1.55,0,0,1-1.16-.48,1.64,1.64,0,0,1-.46-1.19v-17a1.64,1.64,0,0,1,1.67-1.67,1.55,1.55,0,0,1,1.17.48,1.66,1.66,0,0,1,.45,1.19Z" transform="translate(-4.25 -0.51)"/>
    </g>
    <path class="cls-1" d="M12.73.78a1.46,1.46,0,0,0-.53,1.09c0,.11.48,2.31,1.05,4.9.77,3.47,1,4.72,1,4.8s-.08.1-.18.1h-.13l-.54-1.27c-.3-.69-.89-2.1-1.32-3.14s-.85-2-.94-2.14a1.36,1.36,0,0,0-1.91-.57,1.47,1.47,0,0,0-.38.36,1.54,1.54,0,0,0-.18,1c0,.23,2.33,6.68,2.66,7.52l.13.31.16,0,.81-.24c1.15-.36,5.83-1.55,6-1.54a.65.65,0,0,1,.39,1.11c-.12.14-.23.19-1.4.62a14.93,14.93,0,0,0-1.43.57A.44.44,0,0,0,16,15c.08.07,1.36.52,2.85,1s2.77.95,2.84,1a.89.89,0,0,1,.25.31.35.35,0,0,1,0,.41.45.45,0,0,1-.31.29.87.87,0,0,1-.45.05c-.13,0-1-.25-1.92-.51a17.05,17.05,0,0,0-1.73-.43.09.09,0,0,0,0,.11s1,.55,2.25,1.14S22,19.54,22.12,19.6a.56.56,0,0,1,.18.7.42.42,0,0,1-.28.3,1.21,1.21,0,0,1-.34.07c-.08,0-1.11-.46-2.29-1s-2.17-1-2.2-1a.08.08,0,0,0,0,.1s.77.57,1.7,1.18,1.72,1.14,1.77,1.19a.57.57,0,0,1,.13.66.43.43,0,0,1-.26.28c-.37.15-.49.1-2.53-1.12-1.07-.63-2-1.14-2-1.13a.12.12,0,0,0-.07.1,10.9,10.9,0,0,0,1,1A10.31,10.31,0,0,1,18,22.1a.4.4,0,0,1-.08.47.42.42,0,0,1-.53.14c-.11,0-.8-.51-1.54-1C14.4,20.61,12,19,10.71,18.2L8.18,16.64c-.95-.59-1.84-1.12-2-1.17a1.38,1.38,0,0,0-1.8,1.86,2,2,0,0,0,.23.33c.16.15,8.17,6.35,8.59,6.64A7,7,0,0,0,19,25.78a12.38,12.38,0,0,0,2.82-1.12,5.22,5.22,0,0,0,2.64-4.46,29.52,29.52,0,0,0-.37-5.1,55.3,55.3,0,0,1-.46-6.42c0-1.65-.11-3.07-.14-3.16a1.1,1.1,0,0,0-.95-.69,1.29,1.29,0,0,0-.84.3c-.26.25-.33.64-.55,3.05s-.24,2.51-.49,2.47a.33.33,0,0,1-.16-.07s-.29-1.93-.58-4.21c-.39-3-.57-4.22-.64-4.41a1.32,1.32,0,0,0-2.22-.44,1.44,1.44,0,0,0-.37.81c0,.09.14,1.83.34,3.88s.35,3.76.33,3.79a.23.23,0,0,1-.31.12,39.15,39.15,0,0,1-1.12-4.3c-.57-2.34-1.09-4.37-1.14-4.51A1.37,1.37,0,0,0,12.73.78Z" transform="translate(-4.25 -0.51)"/>
  </g>
</svg>
